<?xml version="1.0" encoding="UTF-8" standalone="no"?>
<svg width="557px" height="403px" viewBox="0 0 557 403" version="1.1" xmlns="http://www.w3.org/2000/svg" xmlns:xlink="http://www.w3.org/1999/xlink">
    <!-- Generator: Sketch 50.2 (55047) - http://www.bohemiancoding.com/sketch -->
    <title>yeah</title>
    <desc>Created with Sketch.</desc>
    <defs></defs>
    <g id="Landing" stroke="none" stroke-width="1" fill="none" fill-rule="evenodd">
        <g id="Landing-noise" transform="translate(0.000000, -819.000000)" fill="#000000">
            <path d="M178.834821,1206.31563 C174.864563,1210.28812 167.321187,1213.764 156.204464,1216.74336 C145.087742,1219.72273 132.184597,1221.21239 117.494643,1221.21239 C84.9385277,1221.21239 64.492006,1211.47994 56.1544643,1192.01475 C36.3031746,1212.67169 5.93115685,1223 -34.9625,1223 C-56.7989187,1223 -74.7640664,1217.93515 -88.8584821,1207.80531 C-102.952898,1197.67547 -110,1182.67955 -110,1162.81711 C-110,1136.20144 -99.6774842,1115.64412 -79.0321429,1101.14454 C-58.3868015,1086.64496 -22.2579962,1076.41596 29.3553571,1070.45723 L53.1767857,1067.47788 L53.1767857,1038.28024 C53.1767857,1003.71959 50.5961568,980.480886 45.4348214,968.563422 C40.2734861,956.645958 30.0502252,950.687316 14.7647321,950.687316 C-0.520760951,950.687316 -10.347002,952.772841 -14.7142857,956.943953 C-19.0815695,961.115065 -20.6696488,965.881979 -19.4785714,971.244838 C-18.287494,976.607696 -16.3023948,983.658757 -13.5232143,992.39823 C-10.7440337,1001.1377 -9.35446429,1008.08945 -9.35446429,1013.25369 C-9.35446429,1025.5684 -13.6224276,1035.99602 -22.1584821,1044.53687 C-30.6945367,1053.07772 -41.0170525,1057.34808 -53.1263393,1057.34808 C-65.235626,1057.34808 -75.6573968,1053.07772 -84.3919643,1044.53687 C-93.1265318,1035.99602 -97.49375,1025.5684 -97.49375,1013.25369 C-97.49375,992.993999 -87.0719792,975.614625 -66.228125,961.115044 C-45.3842708,946.615463 -14.2182134,939.365782 27.2709821,939.365782 C68.7601777,939.365782 98.3381557,947.50926 116.005804,963.79646 C133.673451,980.083661 142.507143,1008.88377 142.507143,1050.19764 L142.507143,1157.45428 C142.507143,1178.50846 145.087772,1191.71679 150.249107,1197.07965 C155.410442,1202.4425 164.938919,1203.53492 178.834821,1200.35693 L178.834821,1206.31563 Z M-27.2205357,1150.89971 C-25.2354067,1165.99516 -19.677129,1177.61451 -10.5455357,1185.75811 C-1.41394244,1193.90171 9.20633826,1197.97345 21.315625,1197.97345 C33.4249117,1197.97345 44.0451924,1192.01481 53.1767857,1180.09735 L53.1767857,1078.79941 L31.7375,1081.77876 C13.4743134,1084.16225 -1.31467557,1091.114 -12.6299107,1102.63422 C-23.9451459,1114.15443 -28.8086389,1130.24277 -27.2205357,1150.89971 Z M527.223214,1206.31563 L557,1206.31563 L557,1218.23304 L408.116071,1218.23304 L408.116071,1206.31563 L437.892857,1206.31563 L437.892857,1039.47198 C437.892857,1011.26731 433.724149,991.206549 425.386607,979.289086 C417.049065,967.371622 404.542941,961.412979 387.867857,961.412979 C365.237387,961.412979 347.172984,973.330264 333.674107,997.165192 L333.674107,1206.31563 L363.450893,1206.31563 L363.450893,1218.23304 L214.566964,1218.23304 L214.566964,1206.31563 L244.34375,1206.31563 L244.34375,830.917404 L214.566964,830.917404 L214.566964,819 L333.674107,819 L333.674107,975.117994 C341.217597,964.392277 352.929682,955.454313 368.810714,948.303835 C384.691746,941.153357 402.160619,937.578171 421.217857,937.578171 C491.888449,937.578171 527.223214,975.912104 527.223214,1052.58112 L527.223214,1206.31563 Z" id="yeah" style="mix-blend-mode: hard-light;"></path>
        </g>
    </g>
</svg>