<?xml version="1.0" encoding="UTF-8"?>
<svg width="959px" height="288px" viewBox="0 0 959 288" version="1.1" xmlns="http://www.w3.org/2000/svg" xmlns:xlink="http://www.w3.org/1999/xlink">
    <!-- Generator: Sketch 50.2 (55047) - http://www.bohemiancoding.com/sketch -->
    <title>bd_stuff</title>
    <desc>Created with Sketch.</desc>
    <defs></defs>
    <g id="Landing" stroke="none" stroke-width="1" fill="none" fill-rule="evenodd">
        <g id="Landing-noise" transform="translate(-443.000000, -4874.000000)" fill="#F5A623">
            <g id="bd_stuff" transform="translate(443.000000, 4874.000000)">
                <path d="M8.27911857,281.784173 L0,281.784173 L0,185.231655 L8.27911857,185.231655 C8.27911857,211.20013 17.5930338,233.300628 36.2211438,251.533813 C54.8492537,269.766998 77.5476101,278.883453 104.316894,278.883453 C115.355774,278.883453 124.255737,275.637443 131.017051,269.145324 C137.778365,262.653205 141.158972,254.020198 141.158972,243.246043 C141.158972,231.090587 133.293888,220.730978 117.563484,212.166906 C109.008352,207.74674 94.2440713,200.771271 73.2701994,191.240288 C52.2963275,181.709305 37.532047,173.62881 28.976915,166.998561 C11.8666511,153.738063 4.3465269,136.195793 6.41631689,114.371223 C8.48610689,92.5466535 16.6961507,75.6259594 31.0466946,63.6086331 C45.3972386,51.5913068 61.6103503,45.5827338 79.6865163,45.5827338 C97.7626822,45.5827338 114.044786,47.9999758 128.533316,52.8345324 C143.021846,57.6690889 151.23189,60.0863309 153.163694,60.0863309 C158.683134,60.0863309 161.442812,55.2518469 161.442812,45.5827338 L169.721931,45.5827338 L169.721931,121.415827 L161.442812,121.415827 C161.442812,101.52508 154.129664,85.2950269 139.503148,72.7251799 C124.876632,60.1553328 106.110818,53.8705036 83.2051417,53.8705036 C72.9941777,53.8705036 64.9911098,56.8402581 59.1956978,62.7798561 C53.4002858,68.7194542 50.5026233,75.2805396 50.5026233,82.4633094 C50.5026233,89.6460791 51.4685108,95.1712037 53.4003148,99.0388489 C55.3321188,102.906494 58.7127251,106.428761 63.542235,109.605755 C68.371745,112.78275 72.5802549,115.33812 76.1678909,117.271942 C79.7555269,119.205765 85.4818599,121.830199 93.3470619,125.145324 C101.212264,128.460448 106.662629,130.808626 109.698321,132.189928 C124.876781,139.096437 133.845736,143.171217 136.605456,144.414388 C139.365176,145.65756 143.36671,147.660418 148.610178,150.423022 C153.853646,153.185625 157.786188,155.671931 160.407922,157.882014 C163.029656,160.092097 166.410263,162.85466 170.549843,166.169784 C174.689423,169.484909 177.725069,172.869047 179.656873,176.322302 C181.588677,179.775557 183.520452,183.712208 185.452256,188.132374 C189.315864,196.972706 190.695703,207.332315 189.591815,219.211511 C187.384039,241.588601 179.036012,258.647423 164.547482,270.388489 C150.058952,282.129555 130.534226,288 105.972718,288 C83.8949578,288 61.955513,282.336747 40.1537251,271.010072 C32.7024811,267.142427 27.1831239,265.208633 23.5954879,265.208633 C13.384524,265.208633 8.27911857,270.733758 8.27911857,281.784173 Z M298.87618,99.4532374 L298.87618,200.564029 C298.87618,224.322421 299.842068,238.756809 301.773872,243.867626 C303.705676,248.978443 305.775435,253.329478 307.983211,256.920863 C312.122791,264.103633 319.366947,267.694964 329.715897,267.694964 C340.064847,267.694964 347.309003,266.313683 351.448583,263.551079 L351.448583,271.838849 C338.201927,281.231702 323.713615,285.928058 307.983211,285.928058 C284.801563,285.928058 267.13962,280.402933 254.996852,269.352518 C242.854084,258.302103 236.782791,238.549783 236.782791,210.094964 L236.782791,99.4532374 L206.150052,99.4532374 L206.150052,91.1654676 L236.782791,91.1654676 C250.029447,88.9553846 261.758081,82.5324273 271.969045,71.8964029 C282.180009,61.2603785 289.217189,46.5497342 293.080797,27.7640288 L298.87618,27.7640288 L298.87618,91.1654676 L346.895068,91.1654676 L346.895068,99.4532374 L298.87618,99.4532374 Z M514.961175,281.784173 L514.961175,259.821583 C509.717707,267.280613 501.507663,273.565442 490.330797,278.676259 C479.153932,283.787076 467.080338,286.342446 454.109654,286.342446 C404.986638,286.342446 380.425498,259.68372 380.425498,206.365468 L380.425498,99.4532374 L359.727702,99.4532374 L359.727702,91.1654676 L442.518888,91.1654676 L442.518888,215.482014 C442.518888,235.096501 445.41655,249.047441 451.211962,257.335252 C457.007374,265.623063 465.700362,269.766906 477.291186,269.766906 C492.745618,269.766906 505.302155,261.47922 514.961175,244.903597 L514.961175,99.4532374 L494.263379,99.4532374 L494.263379,91.1654676 L577.054565,91.1654676 L577.054565,273.496403 L597.752361,273.496403 L597.752361,281.784173 L514.961175,281.784173 Z M730.218258,281.784173 L626.729276,281.784173 L626.729276,273.496403 L647.427072,273.496403 L647.427072,99.4532374 L622.589717,99.4532374 L622.589717,91.1654676 L647.427072,91.1654676 C647.427072,30.3881853 674.74789,0 729.390346,0 C748.708386,0 763.472667,4.0747794 773.683631,12.2244604 C783.894595,20.3741415 789,29.8359174 789,40.6100719 C789,47.2403209 786.861249,52.4201252 782.583683,56.1496403 C778.306117,59.8791553 773.269704,61.7438849 767.474292,61.7438849 C752.571804,61.7438849 745.120672,52.8346215 745.120672,35.0158273 C745.120672,17.1970332 739.877282,8.28776978 729.390346,8.28776978 C721.66313,8.28776978 716.419741,14.9869834 713.660021,28.3856115 C710.900301,41.7842397 709.520462,62.7106491 709.520462,91.1654676 L763.334732,91.1654676 L763.334732,99.4532374 L709.520462,99.4532374 L709.520462,273.496403 L730.218258,273.496403 L730.218258,281.784173 Z M900.218258,281.784173 L796.729276,281.784173 L796.729276,273.496403 L817.427072,273.496403 L817.427072,99.4532374 L792.589717,99.4532374 L792.589717,91.1654676 L817.427072,91.1654676 C817.427072,30.3881853 844.74789,0 899.390346,0 C918.708386,0 933.472667,4.0747794 943.683631,12.2244604 C953.894595,20.3741415 959,29.8359174 959,40.6100719 C959,47.2403209 956.861249,52.4201252 952.583683,56.1496403 C948.306117,59.8791553 943.269704,61.7438849 937.474292,61.7438849 C922.571804,61.7438849 915.120672,52.8346215 915.120672,35.0158273 C915.120672,17.1970332 909.877282,8.28776978 899.390346,8.28776978 C891.66313,8.28776978 886.419741,14.9869834 883.660021,28.3856115 C880.900301,41.7842397 879.520462,62.7106491 879.520462,91.1654676 L933.334732,91.1654676 L933.334732,99.4532374 L879.520462,99.4532374 L879.520462,273.496403 L900.218258,273.496403 L900.218258,281.784173 Z"></path>
            </g>
        </g>
    </g>
</svg>