<?xml version="1.0" encoding="UTF-8" standalone="no"?>
<svg width="393px" height="1024px" viewBox="0 0 393 1024" version="1.1" xmlns="http://www.w3.org/2000/svg" xmlns:xlink="http://www.w3.org/1999/xlink">
    <!-- Generator: Sketch 50.2 (55047) - http://www.bohemiancoding.com/sketch -->
    <title>Group 36</title>
    <desc>Created with Sketch.</desc>
    <defs></defs>
    <g id="Landing" stroke="none" stroke-width="1" fill="none" fill-rule="evenodd">
        <g id="Landing-noise" transform="translate(-1047.000000, -9577.000000)" fill="#000000">
            <g id="Group-36" transform="translate(1047.000000, 9551.000000)">
                <path d="M279.405958,171.926168 C264.550573,188.907483 249.688197,205.888798 231.232566,226.98338 C230.771176,216.679081 228.051766,209.241392 230.617379,205.360553 C271.960789,142.893825 306.837737,74.6375334 376.116261,36.5616368 C397.242366,24.9543342 417.284902,10.656504 439.522539,2.07076263 C450.539991,-2.1833701 466.779549,0.648022878 478.251401,5.76143408 C496.427401,13.8682334 498.790281,26.4404634 479.78937,39.1676453 C467.981961,47.0701899 457.52377,57.0152816 448.086231,64.7206147 C433.790108,66.2208304 416.313185,63.1217933 405.253788,70.2002758 C378.213492,87.5196672 353.850661,109.19884 329.117319,129.976475 C324.244752,134.068613 319.344223,142.295148 319.889503,148.098799 C324.300679,195.218249 330.005146,242.217964 335.374057,289.738881 C386.46959,268.79925 433.25881,249.620437 480.048029,230.441623 C482.124287,234.745059 484.207537,239.048494 486.283795,243.35193 C480.817013,247.317289 475.657826,251.810893 469.841506,255.163487 C430.923893,277.57516 391.174378,298.648612 353.410242,322.870404 C345.238033,328.110594 339.5825,344.718616 340.344494,355.551159 C346.39151,441.690304 354.319042,527.695626 361.491572,613.764338 C362.134722,621.504888 361.575461,629.351086 361.575461,637.993174 C334.199608,638.380553 325.335313,622.237387 323.433823,600.537085 C317.799263,536.39406 312.877762,472.194689 307.431952,408.030535 C306.565097,397.867102 304.439903,387.809318 301.783411,370.419494 C272.79269,392.281792 248.143237,410.868971 223.486794,429.456151 C220.662523,426.800839 217.831262,424.138485 215,421.483173 C229.911311,402.32549 241.963397,379.505307 260.405047,364.862357 C288.158401,342.831021 298.406869,317.883772 295.736395,283.040735 C293.016986,247.528587 295.135189,211.636103 295.135189,175.912657 C289.892112,174.58148 284.649035,173.257346 279.405958,171.926168" id="Fill-10"></path>
                <path d="M341.087082,628.716313 C306.216661,706.757208 253.393645,729.630185 199.099515,748.086225 C113.188871,777.290562 83.2554135,862.288445 138.621713,934.110594 C148.607843,947.04859 176.571502,957.496586 191.482129,953.042111 C240.116206,938.552556 287.191898,918.006917 333.532031,896.860675 C350.873739,888.940218 364.550125,872.949155 393,867.280961 C388.661456,885.336598 389.933098,908.422289 379.074272,920.609531 C318.721141,988.365094 251.461248,1045.04703 153.731813,1049.82684 C118.175703,1051.56608 97.7670939,1040.44241 91.9449678,1005.61993 C75.2640157,905.769624 60.9144073,805.468868 42.014315,706.043992 C31.8287112,652.427632 11.843983,600.713183 1.19709724,547.146873 C-2.45575701,528.715859 2.34406854,501.363382 14.3249318,488.225184 C81.3230162,414.738864 172.831379,409.633736 270.111999,412.62424 C257.520249,423.259924 246.137805,436.09782 232.012604,443.943201 C215.85527,452.902201 197.15465,457.156474 179.725674,463.900749 C71.9353055,505.692731 52.5489971,554.266525 105.696156,658.158389 C111.680354,669.870154 135.492476,681.606944 147.98449,678.929254 C179.82541,672.122416 209.359921,655.092809 240.939033,646.108784 C268.1422,638.376017 296.878818,636.098729 341.087082,628.716313" id="Fill-12"></path>
            </g>
        </g>
    </g>
</svg>