<?xml version="1.0" encoding="UTF-8"?>
<svg width="262px" height="302px" viewBox="0 0 262 302" version="1.1" xmlns="http://www.w3.org/2000/svg" xmlns:xlink="http://www.w3.org/1999/xlink">
    <!-- Generator: Sketch 50.2 (55047) - http://www.bohemiancoding.com/sketch -->
    <title>porfolio/circle_cross</title>
    <desc>Created with Sketch.</desc>
    <defs>
        <circle id="path-1" cx="131" cy="131" r="131"></circle>
    </defs>
    <g id="Landing" stroke="none" stroke-width="1" fill="none" fill-rule="evenodd">
        <g id="Landing-noise" transform="translate(-1031.000000, -8090.000000)">
            <g id="Group-24" transform="translate(132.000000, 7701.000000)">
                <g id="porfolio/circle_cross" transform="translate(899.000000, 389.000000)">
                    <path d="M179.167346,282.360172 C171.489499,273.292769 160.720943,266.34591 151.045472,259.531734 C148.584837,257.802128 149.140927,256.797534 150.780554,254.961308 C156.300871,248.78685 163.24363,241.043899 169.305716,235.46414 C173.761588,231.360471 173.432231,226.529419 174.191185,221.65572 C174.334384,220.77907 174.246078,219.769738 173.269939,219.265072 C172.050362,218.632462 171.067063,219.210577 170.429828,220.172523 C166.709043,225.771236 160.093255,228.190315 155.964353,233.400459 C152.195836,238.153323 147.114662,243.602769 143.358078,248.360371 C141.458306,250.765235 139.386696,251.769829 137.253032,249.962034 C129.935569,243.752036 121.267263,238.906768 114.517823,232.113916 C109.897272,227.467672 110.095364,227.488995 107.813728,233.635022 C107.176493,235.352782 104.973617,233.983313 104.255236,235.473618 C103.119191,237.826356 103.787453,239.596242 105.629945,241.340064 C112.74693,248.042882 120.36511,254.146261 128.49642,259.555428 C131.429611,261.505381 131.389038,262.59764 129.207642,265.208635 C121.071558,274.948926 113.229033,284.92615 105.305361,294.839402 C103.796999,296.723015 101.751642,299.440629 103.992704,301.068355 C106.109661,302.603677 109.205144,302.345421 111.696805,299.511709 C120.326924,289.700338 129.384254,280.249104 138.105066,270.511182 C139.832999,268.580183 140.813911,268.302972 142.926095,269.928329 C148.756676,274.415828 155.17676,278.211486 160.627864,283.092293 C164.625499,286.674711 169.522901,287.947038 173.957293,290.328209 C176.735352,291.823252 179.081427,290.354271 180.437043,287.925714 C181.544448,285.94259 180.964492,284.483086 179.167346,282.360172 Z" id="Shape" fill="#000000" fill-rule="nonzero"></path>
                    <g id="Group-12">
                        <mask id="mask-2" fill="white">
                            <use xlink:href="#path-1"></use>
                        </mask>
                        <use id="Oval-2" fill="#000000" xlink:href="#path-1"></use>
                        <path d="M178.922483,283.93163 C171.225559,274.834587 160.430248,267.86502 150.730737,261.028569 C148.263989,259.293309 148.82146,258.285431 150.465161,256.443203 C155.999193,250.248561 162.959203,242.480299 169.036351,236.882301 C173.503294,232.765217 173.173118,227.918373 173.933958,223.028742 C174.077512,222.149226 173.988987,221.136595 173.010423,220.630279 C171.787815,219.995602 170.802073,220.575607 170.163255,221.540697 C166.433226,227.157711 159.801,229.584699 155.66184,234.811874 C151.883959,239.580274 146.790161,245.047533 143.024243,249.820688 C141.119751,252.233413 139.042993,253.241291 136.904029,251.427587 C129.568385,245.197289 120.878542,240.336182 114.112331,233.521125 C109.4803,228.859693 109.678884,228.881086 107.39158,235.047204 C106.752761,236.770579 104.544412,235.396633 103.824246,236.891809 C102.685379,239.252239 103.355301,241.027909 105.202371,242.777432 C112.337038,249.502161 119.974147,255.625491 128.12566,261.05234 C131.066139,263.008668 131.025465,264.104497 128.838648,266.724027 C120.68235,276.496158 112.820339,286.505996 104.87698,296.451654 C103.364871,298.341424 101.314432,301.067922 103.561062,302.700968 C105.683279,304.241309 108.786453,303.982209 111.284304,301.139234 C119.935866,291.295791 129.015699,281.813662 137.758179,272.043908 C139.490406,270.106596 140.473755,269.828479 142.591187,271.459149 C148.436254,275.961318 154.872289,279.769382 160.336937,284.666145 C164.344505,288.260273 169.254075,289.53676 173.699485,291.925714 C176.484446,293.425645 178.83635,291.951862 180.195334,289.515366 C181.30549,287.525759 180.724094,286.061484 178.922483,283.93163 Z" id="Shape-Copy" fill="#FFFFFF" fill-rule="nonzero" mask="url(#mask-2)"></path>
                    </g>
                </g>
            </g>
        </g>
    </g>
</svg>