<?xml version="1.0" encoding="UTF-8" standalone="no"?>
<svg width="720px" height="279px" viewBox="0 0 720 279" version="1.1" xmlns="http://www.w3.org/2000/svg" xmlns:xlink="http://www.w3.org/1999/xlink">
    <!-- Generator: Sketch 50.2 (55047) - http://www.bohemiancoding.com/sketch -->
    <title>Group 23</title>
    <desc>Created with Sketch.</desc>
    <defs></defs>
    <g id="Landing" stroke="none" stroke-width="1" fill="none" fill-rule="evenodd">
        <g id="Landing-noise" transform="translate(0.000000, -4122.000000)" fill="#27FC4B">
            <g id="Group-23" transform="translate(-77.000000, 4122.000000)">
                <path d="M204.045059,135.630657 L195.883257,135.630657 C195.883257,113.907921 188.945794,93.8146909 175.070661,75.350365 C161.195527,56.8860391 141.33534,47.6540146 115.489503,47.6540146 C101.070247,47.6540146 89.1677377,56.0714487 79.781618,72.9065693 C70.3954984,89.74169 65.702509,118.523884 65.702509,159.254015 C65.702509,199.984145 70.3954984,228.766339 79.781618,245.60146 C89.1677377,262.436581 103.858835,270.854015 123.855351,270.854015 C143.851866,270.854015 160.719423,264.608822 174.458525,252.118248 C188.197628,239.627675 196.69942,221.978216 199.964158,199.169343 L208.12596,199.169343 C204.3171,226.051229 194.863107,246.076576 179.763697,259.245985 C164.664287,272.415394 146.640487,279 125.691756,279 C85.1546019,279 54.0720487,269.292798 32.4431644,249.878102 C10.81428,230.463407 0,200.052032 0,158.643066 C0,117.2341 10.5422226,87.0263724 31.6269841,68.0189781 C52.7117456,49.0115838 80.6656392,39.5080292 115.489503,39.5080292 C134.261743,39.5080292 152.489586,44.5313366 170.173579,54.5781022 C175.886869,58.1080468 180.579859,59.8729927 184.252688,59.8729927 C187.925518,59.8729927 190.850134,58.1759294 193.026626,54.7817518 C195.203117,51.3875743 196.291347,48.0613302 196.291347,44.8029197 L204.045059,44.8029197 L204.045059,135.630657 Z M301.986687,248.452555 C307.972039,262.029265 318.310218,268.817518 333.001536,268.817518 C347.692854,268.817518 358.167062,261.8935 364.424475,248.045255 C370.681888,234.197011 373.810548,211.320597 373.810548,179.415328 C373.810548,147.510059 370.681888,124.565763 364.424475,110.581752 C358.167062,96.5977403 347.692854,89.6058394 333.001536,89.6058394 C318.310218,89.6058394 307.972039,96.5977403 301.986687,110.581752 C296.001335,124.565763 293.008705,147.577942 293.008705,179.618978 C293.008705,211.660014 296.001335,234.60431 301.986687,248.452555 Z M332.185356,276.963504 C306.339519,276.963504 282.942586,268.54607 261.993856,251.710949 C241.045125,234.875828 230.570917,210.981177 230.570917,180.026277 C230.570917,163.462691 233.631562,148.664299 239.752944,135.630657 C245.874327,122.597015 254.036047,112.27887 264.238351,104.675912 C274.440655,97.0729547 285.390964,91.3029394 297.089606,87.3656934 C308.788248,83.4284475 320.758771,81.459854 333.001536,81.459854 C345.244301,81.459854 357.282839,83.4284475 369.117512,87.3656934 C380.952184,91.3029394 391.970507,97.0729547 402.172811,104.675912 C412.375115,112.27887 420.60485,122.597015 426.862263,135.630657 C433.119676,148.664299 436.248336,163.326926 436.248336,179.618978 C436.248336,195.91103 433.119676,210.437892 426.862263,223.2 C420.60485,235.962108 412.307101,246.144488 401.968766,253.747445 C381.292097,269.224895 358.031193,276.963504 332.185356,276.963504 Z M532.149514,248.452555 C538.134865,262.029265 548.473045,268.817518 563.164363,268.817518 C577.85568,268.817518 588.329888,261.8935 594.587302,248.045255 C600.844715,234.197011 603.973374,211.320597 603.973374,179.415328 C603.973374,147.510059 600.844715,124.565763 594.587302,110.581752 C588.329888,96.5977403 577.85568,89.6058394 563.164363,89.6058394 C548.473045,89.6058394 538.134865,96.5977403 532.149514,110.581752 C526.164162,124.565763 523.171531,147.577942 523.171531,179.618978 C523.171531,211.660014 526.164162,234.60431 532.149514,248.452555 Z M562.348182,276.963504 C536.502346,276.963504 513.105413,268.54607 492.156682,251.710949 C471.207951,234.875828 460.733743,210.981177 460.733743,180.026277 C460.733743,163.462691 463.794388,148.664299 469.915771,135.630657 C476.037153,122.597015 484.198874,112.27887 494.401178,104.675912 C504.603482,97.0729547 515.55379,91.3029394 527.252432,87.3656934 C538.951074,83.4284475 550.921598,81.459854 563.164363,81.459854 C575.407127,81.459854 587.445665,83.4284475 599.280338,87.3656934 C611.115011,91.3029394 622.133334,97.0729547 632.335637,104.675912 C642.537941,112.27887 650.767677,122.597015 657.02509,135.630657 C663.282503,148.664299 666.411162,163.326926 666.411162,179.618978 C666.411162,195.91103 663.282503,210.437892 657.02509,223.2 C650.767677,235.962108 642.469927,246.144488 632.131592,253.747445 C611.454923,269.224895 588.194019,276.963504 562.348182,276.963504 Z M776.595494,264.744526 L797,264.744526 L797,272.890511 L694.977471,272.890511 L694.977471,264.744526 L715.381976,264.744526 L715.381976,8.1459854 L694.977471,8.1459854 L694.977471,0 L776.595494,0 L776.595494,264.744526 Z" id="Cool" style="mix-blend-mode: color;"></path>
                <path d="M204.045059,135.630657 L195.883257,135.630657 C195.883257,113.907921 188.945794,93.8146909 175.070661,75.350365 C161.195527,56.8860391 141.33534,47.6540146 115.489503,47.6540146 C101.070247,47.6540146 89.1677377,56.0714487 79.781618,72.9065693 C70.3954984,89.74169 65.702509,118.523884 65.702509,159.254015 C65.702509,199.984145 70.3954984,228.766339 79.781618,245.60146 C89.1677377,262.436581 103.858835,270.854015 123.855351,270.854015 C143.851866,270.854015 160.719423,264.608822 174.458525,252.118248 C188.197628,239.627675 196.69942,221.978216 199.964158,199.169343 L208.12596,199.169343 C204.3171,226.051229 194.863107,246.076576 179.763697,259.245985 C164.664287,272.415394 146.640487,279 125.691756,279 C85.1546019,279 54.0720487,269.292798 32.4431644,249.878102 C10.81428,230.463407 0,200.052032 0,158.643066 C0,117.2341 10.5422226,87.0263724 31.6269841,68.0189781 C52.7117456,49.0115838 80.6656392,39.5080292 115.489503,39.5080292 C134.261743,39.5080292 152.489586,44.5313366 170.173579,54.5781022 C175.886869,58.1080468 180.579859,59.8729927 184.252688,59.8729927 C187.925518,59.8729927 190.850134,58.1759294 193.026626,54.7817518 C195.203117,51.3875743 196.291347,48.0613302 196.291347,44.8029197 L204.045059,44.8029197 L204.045059,135.630657 Z M301.986687,248.452555 C307.972039,262.029265 318.310218,268.817518 333.001536,268.817518 C347.692854,268.817518 358.167062,261.8935 364.424475,248.045255 C370.681888,234.197011 373.810548,211.320597 373.810548,179.415328 C373.810548,147.510059 370.681888,124.565763 364.424475,110.581752 C358.167062,96.5977403 347.692854,89.6058394 333.001536,89.6058394 C318.310218,89.6058394 307.972039,96.5977403 301.986687,110.581752 C296.001335,124.565763 293.008705,147.577942 293.008705,179.618978 C293.008705,211.660014 296.001335,234.60431 301.986687,248.452555 Z M332.185356,276.963504 C306.339519,276.963504 282.942586,268.54607 261.993856,251.710949 C241.045125,234.875828 230.570917,210.981177 230.570917,180.026277 C230.570917,163.462691 233.631562,148.664299 239.752944,135.630657 C245.874327,122.597015 254.036047,112.27887 264.238351,104.675912 C274.440655,97.0729547 285.390964,91.3029394 297.089606,87.3656934 C308.788248,83.4284475 320.758771,81.459854 333.001536,81.459854 C345.244301,81.459854 357.282839,83.4284475 369.117512,87.3656934 C380.952184,91.3029394 391.970507,97.0729547 402.172811,104.675912 C412.375115,112.27887 420.60485,122.597015 426.862263,135.630657 C433.119676,148.664299 436.248336,163.326926 436.248336,179.618978 C436.248336,195.91103 433.119676,210.437892 426.862263,223.2 C420.60485,235.962108 412.307101,246.144488 401.968766,253.747445 C381.292097,269.224895 358.031193,276.963504 332.185356,276.963504 Z M532.149514,248.452555 C538.134865,262.029265 548.473045,268.817518 563.164363,268.817518 C577.85568,268.817518 588.329888,261.8935 594.587302,248.045255 C600.844715,234.197011 603.973374,211.320597 603.973374,179.415328 C603.973374,147.510059 600.844715,124.565763 594.587302,110.581752 C588.329888,96.5977403 577.85568,89.6058394 563.164363,89.6058394 C548.473045,89.6058394 538.134865,96.5977403 532.149514,110.581752 C526.164162,124.565763 523.171531,147.577942 523.171531,179.618978 C523.171531,211.660014 526.164162,234.60431 532.149514,248.452555 Z M562.348182,276.963504 C536.502346,276.963504 513.105413,268.54607 492.156682,251.710949 C471.207951,234.875828 460.733743,210.981177 460.733743,180.026277 C460.733743,163.462691 463.794388,148.664299 469.915771,135.630657 C476.037153,122.597015 484.198874,112.27887 494.401178,104.675912 C504.603482,97.0729547 515.55379,91.3029394 527.252432,87.3656934 C538.951074,83.4284475 550.921598,81.459854 563.164363,81.459854 C575.407127,81.459854 587.445665,83.4284475 599.280338,87.3656934 C611.115011,91.3029394 622.133334,97.0729547 632.335637,104.675912 C642.537941,112.27887 650.767677,122.597015 657.02509,135.630657 C663.282503,148.664299 666.411162,163.326926 666.411162,179.618978 C666.411162,195.91103 663.282503,210.437892 657.02509,223.2 C650.767677,235.962108 642.469927,246.144488 632.131592,253.747445 C611.454923,269.224895 588.194019,276.963504 562.348182,276.963504 Z M776.595494,264.744526 L797,264.744526 L797,272.890511 L694.977471,272.890511 L694.977471,264.744526 L715.381976,264.744526 L715.381976,8.1459854 L694.977471,8.1459854 L694.977471,0 L776.595494,0 L776.595494,264.744526 Z" id="Cool-Copy" style="mix-blend-mode: exclusion;"></path>
            </g>
        </g>
    </g>
</svg>