<?xml version="1.0" encoding="UTF-8" standalone="no"?>
<svg width="43px" height="46px" viewBox="0 0 43 46" version="1.1" xmlns="http://www.w3.org/2000/svg" xmlns:xlink="http://www.w3.org/1999/xlink">
    <!-- Generator: Sketch 50.2 (55047) - http://www.bohemiancoding.com/sketch -->
    <title>Shape Copy 2</title>
    <desc>Created with Sketch.</desc>
    <defs></defs>
    <g id="Landing" stroke="none" stroke-width="1" fill="none" fill-rule="evenodd">
        <g id="Mobile" transform="translate(-162.000000, -1732.000000)" fill="#000000" fill-rule="nonzero">
            <path d="M203.989691,1767.11528 C199.757032,1762.08997 193.82052,1758.2399 188.486606,1754.46337 C187.130103,1753.50479 187.436665,1752.94803 188.340562,1751.93036 C191.383813,1748.50837 195.211232,1744.2171 198.553151,1741.1247 C201.009594,1738.85038 200.828025,1736.17293 201.246422,1733.47184 C201.325365,1732.98599 201.276684,1732.4266 200.738556,1732.14691 C200.066225,1731.7963 199.52415,1732.11671 199.172854,1732.64983 C197.121652,1735.75273 193.474487,1737.09343 191.198297,1739.98098 C189.120781,1742.61509 186.319622,1745.63527 184.248684,1748.27201 C183.201374,1749.60483 182.059332,1750.16159 180.883082,1749.15968 C176.849096,1745.718 172.070414,1743.03267 168.349569,1739.26795 C165.802342,1736.69293 165.911547,1736.70474 164.653722,1740.11098 C164.302426,1741.06299 163.08802,1740.304 162.691989,1741.12996 C162.065708,1742.43388 162.434109,1743.41478 163.449842,1744.38124 C167.373307,1748.09606 171.573074,1751.47865 176.055719,1754.4765 C177.672734,1755.5572 177.650367,1756.16255 176.447802,1757.6096 C171.962526,1763.00784 167.639082,1768.53738 163.270904,1774.03148 C162.439371,1775.07541 161.311803,1776.58155 162.54726,1777.48367 C163.7143,1778.33457 165.420784,1778.19144 166.794392,1776.62095 C171.552022,1771.18332 176.545165,1765.94529 181.352793,1760.54837 C182.305371,1759.47817 182.846131,1759.32454 184.010539,1760.22534 C187.224834,1762.71239 190.764111,1764.816 193.769207,1767.52103 C195.973032,1769.50647 198.672881,1770.21161 201.117482,1771.5313 C202.648976,1772.35987 203.942325,1771.54574 204.689652,1770.19979 C205.300144,1769.10071 204.980425,1768.29183 203.989691,1767.11528 Z" id="Shape-Copy-2"></path>
        </g>
    </g>
</svg>