<?xml version="1.0" encoding="UTF-8" standalone="no"?>
<svg width="764px" height="378px" viewBox="0 0 764 378" version="1.1" xmlns="http://www.w3.org/2000/svg" xmlns:xlink="http://www.w3.org/1999/xlink">
    <!-- Generator: Sketch 50.2 (55047) - http://www.bohemiancoding.com/sketch -->
    <title>portfolio/do</title>
    <desc>Created with Sketch.</desc>
    <defs></defs>
    <g id="Landing" stroke="none" stroke-width="1" fill="none" fill-rule="evenodd" opacity="0.0655004529">
        <g id="Landing-noise" transform="translate(-33.000000, -8607.000000)" fill="#000000">
            <path d="M195.276975,8978.50515 L33,8978.50515 L33,8965.51546 L65.4553951,8965.51546 L65.4553951,8627.78351 L33,8627.78351 L33,8614.79381 L195.276975,8614.79381 C227.299792,8614.79381 256.184805,8620.09789 281.93288,8630.70619 C307.680956,8641.31449 328.560384,8655.27826 344.571793,8672.59794 C377.02735,8708.53626 393.254885,8749.23689 393.254885,8794.70103 C393.254885,8856.18587 377.02735,8902.19057 344.571793,8932.71649 C312.116235,8963.24242 262.351794,8978.50515 195.276975,8978.50515 Z M162.82158,8965.51546 C209.557583,8965.51546 243.310856,8952.85064 264.082413,8927.52062 C284.85397,8902.1906 295.239592,8860.84049 295.239592,8803.46907 C295.239592,8746.09765 283.988501,8702.47438 261.485981,8672.59794 C238.983462,8642.7215 206.095657,8627.78351 162.82158,8627.78351 L162.82158,8965.51546 Z M692.493628,8796 C692.493628,8740.57704 685.028962,8697.38675 670.099405,8666.42784 C655.169849,8635.46892 634.614971,8619.98969 608.434155,8619.98969 C582.253338,8619.98969 561.590277,8635.57716 546.44435,8666.75258 C531.298423,8697.92799 523.725573,8741.44302 523.725573,8797.29897 C523.725573,8853.15492 530.973873,8896.23696 545.470688,8926.54639 C559.967504,8956.85582 580.846933,8972.01031 608.109601,8972.01031 C664.3659,8972.01031 692.493628,8913.34079 692.493628,8796 Z M797,8799.89691 C797,8859.21679 779.474262,8904.89675 744.42226,8936.93814 C709.370258,8968.97954 663.716792,8985 607.460493,8985 C551.204193,8985 505.767095,8969.08779 471.147833,8937.26289 C436.528572,8905.43799 419.219201,8859.75803 419.219201,8800.22165 C419.219201,8740.68527 436.528572,8693.59811 471.147833,8658.95876 C505.767095,8624.31941 551.745111,8607 609.083263,8607 C666.421414,8607 712.07488,8624.21117 746.04503,8658.63402 C780.01518,8693.05687 797,8740.14403 797,8799.89691 Z" id="portfolio/do"></path>
        </g>
    </g>
</svg>