<?xml version="1.0" encoding="UTF-8" standalone="no"?>
<svg width="34px" height="34px" viewBox="0 0 34 34" version="1.1" xmlns="http://www.w3.org/2000/svg" xmlns:xlink="http://www.w3.org/1999/xlink">
    <!-- Generator: Sketch 50.2 (55047) - http://www.bohemiancoding.com/sketch -->
    <title>Facebook_White</title>
    <desc>Created with Sketch.</desc>
    <defs></defs>
    <g id="Landing" stroke="none" stroke-width="1" fill="none" fill-rule="evenodd">
        <g id="Mobile" transform="translate(-151.000000, -6963.000000)" fill="#FFFFFF">
            <g id="Group-9-Copy-2" transform="translate(104.000000, 6963.000000)">
                <g id="Facebook" transform="translate(47.000000, 0.000000)">
                    <path d="M0,16.7355387 C0,7.49275543 7.49275543,0 16.7355387,0 C25.9783219,0 33.4710774,7.49275543 33.4710774,16.7355387 C33.4710774,25.9783219 25.9783219,33.4710774 16.7355387,33.4710774 C7.49275543,33.4710774 0,25.9783219 0,16.7355387 Z M18.4799084,26.5756706 L18.4799084,17.4706539 L20.9932912,17.4706539 L21.3263686,14.3330148 L18.4799084,14.3330148 L18.4841786,12.7625962 C18.4841786,11.9442516 18.5619322,11.5057638 19.7373115,11.5057638 L21.308576,11.5057638 L21.308576,8.36776935 L18.7948374,8.36776935 C15.775433,8.36776935 14.712681,9.8898619 14.712681,12.4495429 L14.712681,14.3333701 L12.8305797,14.3333701 L12.8305797,17.4710093 L14.712681,17.4710093 L14.712681,26.5756706 L18.4799084,26.5756706 Z" id="Combined-Shape"></path>
                </g>
            </g>
        </g>
    </g>
</svg>