<?xml version="1.0" encoding="UTF-8"?>
<svg width="31px" height="31px" viewBox="0 0 31 31" version="1.1" xmlns="http://www.w3.org/2000/svg" xmlns:xlink="http://www.w3.org/1999/xlink">
    <!-- Generator: Sketch 50.2 (55047) - http://www.bohemiancoding.com/sketch -->
    <title>Facebook_black</title>
    <desc>Created with Sketch.</desc>
    <defs></defs>
    <g id="Landing" stroke="none" stroke-width="1" fill="none" fill-rule="evenodd">
        <g id="Landing-noise" transform="translate(-443.000000, -10751.000000)" fill="#000000">
            <g id="Facebook" transform="translate(443.000000, 10751.000000)">
                <path d="M0,15.2588735 C0,6.83162996 6.83162996,0 15.2588735,0 C23.6861171,0 30.517747,6.83162996 30.517747,15.2588735 C30.517747,23.6861171 23.6861171,30.517747 15.2588735,30.517747 C6.83162996,30.517747 0,23.6861171 0,15.2588735 Z M16.8493282,24.2307584 L16.8493282,15.9291256 L19.1409419,15.9291256 L19.4446302,13.068337 L16.8493282,13.068337 L16.8532216,11.6364848 C16.8532216,10.890347 16.9241147,10.4905494 17.995784,10.4905494 L19.4284076,10.4905494 L19.4284076,7.62943676 L17.1364694,7.62943676 C14.3834831,7.62943676 13.4145032,9.01722703 13.4145032,11.3510539 L13.4145032,13.068661 L11.6984697,13.068661 L11.6984697,15.9294496 L13.4145032,15.9294496 L13.4145032,24.2307584 L16.8493282,24.2307584 Z" id="Combined-Shape"></path>
            </g>
        </g>
    </g>
</svg>