<?xml version="1.0" encoding="UTF-8"?>
<svg width="31px" height="31px" viewBox="0 0 31 31" version="1.1" xmlns="http://www.w3.org/2000/svg" xmlns:xlink="http://www.w3.org/1999/xlink">
    <!-- Generator: Sketch 50.2 (55047) - http://www.bohemiancoding.com/sketch -->
    <title>ic_behance</title>
    <desc>Created with Sketch.</desc>
    <defs></defs>
    <g id="Landing" stroke="none" stroke-width="1" fill="none" fill-rule="evenodd">
        <g id="Landing-noise_bottom" transform="translate(-1285.000000, -1663.000000)" fill-rule="nonzero">
            <g id="ic_behance" transform="translate(1285.000000, 1663.000000)">
                <circle id="Oval" fill="#FFFFFF" cx="15.3897168" cy="15.3897168" r="15.3897168"></circle>
                <path d="M20.9068938,12.7130177 C16.461823,12.7130177 16.4560619,17.141354 16.4560619,17.1641239 C16.4560619,17.1641239 16.1515487,21.5979469 20.9068938,21.5979469 C20.9068938,21.5979469 24.8726991,21.8234513 24.8726991,18.5122124 L22.8363009,18.5122124 C22.8363009,18.5122124 22.9037876,19.7587965 20.9746549,19.7587965 C20.9746549,19.7587965 18.9382566,19.8943186 18.9382566,17.7448938 L24.9404602,17.7448938 C24.9404602,17.7448938 25.6005133,12.7130177 20.9068938,12.7130177 Z M18.9154867,16.1935221 C18.9154867,16.1935221 19.1637611,14.410885 20.9521593,14.410885 C22.7460442,14.410885 22.717814,16.1935221 22.717814,16.1935221 L18.9154867,16.1935221 Z M13.827646,15.0542035 C13.827646,15.0542035 15.5932743,14.9244425 15.5932743,12.8485398 C15.5932743,10.7783982 14.1491681,9.76280531 12.3157788,9.76280531 L6.28504425,9.76280531 L6.28504425,21.3551593 L12.3152301,21.3551593 C12.3152301,21.3551593 15.9990177,21.4681858 15.9990177,17.9311681 C15.999292,17.9311681 16.1573097,15.0542035 13.827646,15.0542035 Z M8.94226549,11.8216991 L12.3155044,11.8216991 C12.3155044,11.8216991 13.1335752,11.8216991 13.1335752,13.0287788 C13.1335752,14.2358584 12.6540354,14.410885 12.1067345,14.410885 L8.94226549,14.410885 L8.94226549,11.8216991 Z M12.1465133,19.2962655 L8.94226549,19.2962655 L8.94226549,16.19352 L12.3155044,16.1935221 C12.3155044,16.1935221 13.5398673,16.1822743 13.5341062,17.789885 C13.5341062,19.1440088 12.6260531,19.2850177 12.1465133,19.2962655 Z M18.4134513,10.445354 L18.4134513,11.8727257 L23.1973274,11.8727257 L23.1973274,10.445354 L18.4134513,10.445354 Z" id="Shape" fill="#000000"></path>
            </g>
        </g>
    </g>
</svg>