<?xml version="1.0" encoding="UTF-8" standalone="no"?>
<svg width="243px" height="78px" viewBox="0 0 243 78" version="1.1" xmlns="http://www.w3.org/2000/svg" xmlns:xlink="http://www.w3.org/1999/xlink">
    <!-- Generator: Sketch 50.2 (55047) - http://www.bohemiancoding.com/sketch -->
    <title>ic_bang</title>
    <desc>Created with Sketch.</desc>
    <defs></defs>
    <g id="Landing" stroke="none" stroke-width="1" fill="none" fill-rule="evenodd">
        <g id="Landing-noise" transform="translate(-1139.000000, -2864.000000)">
            <g id="ic_bang" transform="translate(1139.000000, 2860.000000)">
                <polygon id="ic_path" fill="#000000" points="0 7.26024965 158.365765 4 170 58 5.64330475 54.9992166"></polygon>
                <g transform="translate(10.000000, 0.000000)">
                    <text id="baang" font-family=".SFNSDisplay-Regular, .SF NS Display" font-size="70" font-weight="normal" letter-spacing="-12" fill="#FFFFFF">
                        <tspan x="0" y="68">baang</tspan>
                    </text>
                    <path d="M231.989691,42.115276 C227.757032,37.0899682 221.82052,33.2399022 216.486606,29.4633709 C215.130103,28.5047937 215.436665,27.9480311 216.340562,26.9303636 C219.383813,23.5083745 223.211232,19.2171004 226.553151,16.1247043 C229.009594,13.8503815 228.828025,11.1729311 229.246422,8.4718446 C229.325365,7.98599043 229.276684,7.42660158 228.738556,7.14690715 C228.066225,6.79630428 227.52415,7.1167054 227.172854,7.64983187 C225.121652,10.7527329 221.474487,12.0934278 219.198297,14.9809773 C217.120781,17.6150948 214.319622,20.6352693 212.248684,23.272013 C211.201374,24.6048292 210.059332,25.1615918 208.883082,24.1596817 C204.849096,20.7179959 200.070414,18.0326667 196.349569,14.2679535 C193.802342,11.6929264 193.911547,11.7047445 192.653722,15.1109761 C192.302426,16.0629877 191.08802,15.3040047 190.691989,16.1299568 C190.065708,17.4338843 190.434109,18.4147845 191.449842,19.3812403 C195.373307,23.096055 199.573074,26.4786506 204.055719,29.4765021 C205.672734,30.5571993 205.650367,31.1625474 204.447802,32.6096049 C199.962526,38.0078386 195.639082,43.5373843 191.270904,49.0314758 C190.439371,50.0754057 189.311803,51.5815536 190.54726,52.4836666 C191.7143,53.334568 193.420784,53.1914379 194.794392,51.6209472 C199.552022,46.1833199 204.545165,40.9452867 209.352793,35.5483661 C210.305371,34.4781738 210.846131,34.3245388 212.010539,35.2253387 C215.224834,37.7123868 218.764111,39.816004 221.769207,42.5210299 C223.973032,44.5064664 226.672881,45.2116115 229.117482,46.5312965 C230.648976,47.3598748 231.942325,46.5457408 232.689652,45.1997934 C233.300144,44.1007125 232.980425,43.291831 231.989691,42.115276 Z" id="Shape-Copy-2" fill="#000000" fill-rule="nonzero"></path>
                </g>
            </g>
        </g>
    </g>
</svg>