<?xml version="1.0" encoding="UTF-8"?>
<svg width="77px" height="82px" viewBox="0 0 77 82" version="1.1" xmlns="http://www.w3.org/2000/svg" xmlns:xlink="http://www.w3.org/1999/xlink">
    <!-- Generator: Sketch 50.2 (55047) - http://www.bohemiancoding.com/sketch -->
    <title>ic_cross</title>
    <desc>Created with Sketch.</desc>
    <defs></defs>
    <g id="Landing" stroke="none" stroke-width="1" fill="none" fill-rule="evenodd">
        <g id="Landing-noise" transform="translate(-300.000000, -10729.000000)" fill="#000000" fill-rule="nonzero">
            <path d="M375.190842,10791.5968 C367.611429,10782.6386 356.980931,10775.7755 347.429504,10769.0434 C345.000417,10767.3346 345.549376,10766.3421 347.167983,10764.528 C352.617526,10758.428 359.471276,10750.7783 365.455643,10745.2658 C369.854388,10741.2115 369.529254,10736.4387 370.278477,10731.6237 C370.41984,10730.7576 370.332667,10729.7605 369.369042,10729.2619 C368.165101,10728.6369 367.194408,10729.208 366.565343,10730.1584 C362.892261,10735.6897 356.36129,10738.0796 352.285323,10743.227 C348.56512,10747.9226 343.54909,10753.3063 339.840667,10758.0066 C337.965251,10760.3825 335.9202,10761.375 333.813891,10759.589 C326.590241,10753.4538 318.033068,10748.6669 311.370158,10741.9559 C306.808845,10737.3657 307.004397,10737.3867 304.752014,10743.4587 C304.122948,10745.1558 301.948314,10743.8028 301.239143,10745.2751 C300.117663,10747.5995 300.777357,10749.3481 302.596228,10751.0709 C309.621969,10757.693 317.142481,10763.7228 325.169543,10769.0668 C328.065129,10770.9933 328.025076,10772.0724 325.871646,10774.6519 C317.839872,10784.2748 310.097891,10794.1319 302.275805,10803.9257 C300.786781,10805.7866 298.767647,10808.4715 300.979977,10810.0796 C303.069794,10811.5964 306.125591,10811.3413 308.585307,10808.5417 C317.104784,10798.8485 326.045994,10789.5112 334.655001,10779.8906 C336.360781,10777.9828 337.329118,10777.709 339.414222,10779.3147 C345.170052,10783.7482 351.507827,10787.4981 356.889045,10792.3201 C360.835429,10795.8594 365.670044,10797.1164 370.047585,10799.4688 C372.790027,10800.9459 375.106024,10799.4946 376.44426,10797.0953 C377.537468,10795.1361 376.964947,10793.6941 375.190842,10791.5968 Z" id="ic_cross"></path>
        </g>
    </g>
</svg>