<?xml version="1.0" encoding="UTF-8"?>
<svg width="31px" height="31px" viewBox="0 0 31 31" version="1.1" xmlns="http://www.w3.org/2000/svg" xmlns:xlink="http://www.w3.org/1999/xlink">
    <!-- Generator: Sketch 50.2 (55047) - http://www.bohemiancoding.com/sketch -->
    <title>ic_dribble</title>
    <desc>Created with Sketch.</desc>
    <defs></defs>
    <g id="Landing" stroke="none" stroke-width="1" fill="none" fill-rule="evenodd">
        <g id="Landing-noise_bottom" transform="translate(-1332.000000, -1663.000000)" fill-rule="nonzero">
            <g id="ic_dribble" transform="translate(1332.000000, 1663.000000)">
                <circle id="Oval" fill="#FFFFFF" cx="15.3897168" cy="15.3897168" r="15.3897168"></circle>
                <path d="M15.3894425,5.61621239 C9.99352212,5.61621239 5.60359292,10.0009292 5.60359292,15.3899912 C5.60359292,20.7790531 9.99352212,25.1634956 15.3894425,25.1634956 C20.7856372,25.1634956 25.1758407,20.7793274 25.1758407,15.3899912 C25.1758407,10.0009292 20.7856372,5.61621239 15.3894425,5.61621239 Z M21.8289381,10.229177 C22.9452124,11.6126549 23.623646,13.3599027 23.6549204,15.2637965 C23.283469,15.187531 21.7104248,14.8942655 19.8306726,14.8942655 C19.224115,14.8942655 18.5857345,14.9247168 17.945708,15.0037257 C17.8916637,14.8723186 17.8376195,14.7414602 17.7808319,14.6092301 C17.6148584,14.2188496 17.4359912,13.8314867 17.2508142,13.449885 C20.1439646,12.2578938 21.5395133,10.603646 21.8289381,10.229177 Z M15.3894425,7.14618584 C17.4746726,7.14618584 19.3807611,7.9209115 20.8366637,9.19684956 C20.6062212,9.51123894 19.3563451,11.0735841 16.5666195,12.1275841 C15.2753186,9.76719469 13.8619381,7.81254867 13.5256018,7.35879646 C14.1250265,7.2199823 14.7488673,7.14618584 15.3894425,7.14618584 Z M11.8381593,7.94724779 C12.1231947,8.33982301 13.5387699,10.3153186 14.8632655,12.6567788 C11.3086903,13.5911681 8.15217699,13.6520708 7.39034513,13.6520708 L7.30941593,13.6520708 C7.85671681,11.129823 9.56089381,9.03389381 11.8381593,7.94724779 Z M7.12176991,15.402885 C7.12176991,15.3348496 7.12286726,15.2668142 7.12506195,15.1990531 C7.17444248,15.1996018 7.24741593,15.1996018 7.34206195,15.1996018 C8.36807965,15.1996018 11.9295133,15.1148319 15.5995841,14.0257168 C15.8223451,14.4613628 16.0344071,14.9035929 16.2316549,15.3455487 C16.1389292,15.3721593 16.0475752,15.3987699 15.9567699,15.4283982 C11.8244425,16.7630442 9.55321239,20.2962212 9.20370796,20.8736991 C7.90884071,19.4147788 7.12176991,17.4993628 7.12176991,15.402885 Z M15.3894425,23.6590354 C13.4932301,23.6590354 11.7432389,23.0168142 10.3468673,21.9400442 C10.5830708,21.4769646 12.2973982,18.3904071 16.8258673,16.8143451 C16.8286106,16.8132478 16.8316283,16.8121504 16.8349204,16.8113274 C17.9703982,19.7675752 18.4513097,22.2486726 18.5832655,23.0176372 C17.6005929,23.4307876 16.521354,23.6590354 15.3894425,23.6590354 Z M20.0723628,22.2036814 C19.961531,21.5674956 19.5160088,19.2422212 18.4877965,16.4061327 C19.0644513,16.3164248 19.625469,16.2810354 20.151646,16.2810354 C21.8796903,16.2810354 23.2313451,16.6593451 23.5454602,16.7553628 C23.1720885,19.0073894 21.882708,20.9562743 20.0723628,22.2036814 Z" id="Shape" fill="#000000"></path>
            </g>
        </g>
    </g>
</svg>