<?xml version="1.0" encoding="UTF-8" standalone="no"?>
<svg width="34px" height="34px" viewBox="0 0 34 34" version="1.1" xmlns="http://www.w3.org/2000/svg" xmlns:xlink="http://www.w3.org/1999/xlink">
    <!-- Generator: Sketch 50.2 (55047) - http://www.bohemiancoding.com/sketch -->
    <title>Instagram_White</title>
    <desc>Created with Sketch.</desc>
    <defs></defs>
    <g id="Landing" stroke="none" stroke-width="1" fill="none" fill-rule="evenodd">
        <g id="Mobile" transform="translate(-203.000000, -6963.000000)" fill="#FFFFFF">
            <g id="Group-9-Copy-2" transform="translate(104.000000, 6963.000000)">
                <g id="Instagram" transform="translate(99.000000, 0.000000)">
                    <path d="M0,16.7355387 C0,7.49275543 7.49275543,0 16.7355387,0 C25.9783219,0 33.4710774,7.49275543 33.4710774,16.7355387 C33.4710774,25.9783219 25.9783219,33.4710774 16.7355387,33.4710774 C7.49275543,33.4710774 0,25.9783219 0,16.7355387 Z M16.7363755,7.80991806 C14.3123004,7.80991806 14.0080824,7.82051734 13.0560062,7.86384424 C12.1057896,7.9073571 11.4571878,8.05779256 10.8896612,8.27851802 C10.3026095,8.50649562 9.8046291,8.8114575 9.30850818,9.30776437 C8.81201536,9.80388529 8.50705348,10.3018657 8.27833207,10.8887314 C8.05704875,11.456444 7.90642733,12.1052318 7.86365829,13.0550765 C7.8210752,14.0071526 7.80991806,14.3115566 7.80991806,16.7356317 C7.80991806,19.1597067 7.82070329,19.462995 7.86384424,20.4150712 C7.90754305,21.3652877 8.05797851,22.0138896 8.27851802,22.5814162 C8.50668158,23.1684678 8.81164346,23.6664483 9.30795032,24.1625692 C9.80388529,24.659062 10.3018657,24.9647677 10.8885454,25.1927453 C11.456444,25.4134708 12.1052318,25.5639062 13.0552624,25.6074191 C14.0073385,25.650746 14.3113707,25.6613453 16.7352598,25.6613453 C19.1595208,25.6613453 19.4628091,25.650746 20.4148852,25.6074191 C21.3651018,25.5639062 22.0144475,25.4134708 22.582346,25.1927453 C23.1692117,24.9647677 23.6664483,24.659062 24.1623833,24.1625692 C24.6588761,23.6664483 24.963838,23.1684678 25.1925594,22.5816022 C25.4119832,22.0138896 25.5626046,21.3651018 25.6072331,20.4152571 C25.6500022,19.463181 25.6611593,19.1597067 25.6611593,16.7356317 C25.6611593,14.3115566 25.6500022,14.0073385 25.6072331,13.0552624 C25.5626046,12.1050458 25.4119832,11.456444 25.1925594,10.8889173 C24.963838,10.3018657 24.6588761,9.80388529 24.1623833,9.30776437 C23.6658904,8.81127155 23.1693976,8.50630967 22.5817881,8.27851802 C22.0127739,8.05779256 21.3638001,7.9073571 20.4135835,7.86384424 C19.4615074,7.82051734 19.1584051,7.80991806 16.7335862,7.80991806 L16.7363755,7.80991806 Z" id="Combined-Shape"></path>
                    <path d="M15.9356646,9.41840603 C16.1733117,9.41803413 16.4384798,9.41840603 16.7363755,9.41840603 C19.119541,9.41840603 19.4020027,9.42695984 20.3431076,9.46972888 C21.2133647,9.50952269 21.6856837,9.65493744 22.0003151,9.77710815 C22.4168484,9.93888671 22.7138143,10.1322772 23.0260283,10.4446771 C23.3384283,10.7570771 23.5318188,11.0546009 23.6939692,11.4711342 C23.8161399,11.7853937 23.9617406,12.2577127 24.0013485,13.1279698 C24.0441175,14.0688888 24.0534152,14.3515364 24.0534152,16.7335862 C24.0534152,19.115636 24.0441175,19.3982836 24.0013485,20.3392026 C23.9615547,21.2094597 23.8161399,21.6817787 23.6939692,21.9960382 C23.5321907,22.4125715 23.3384283,22.7091655 23.0260283,23.0213795 C22.7136284,23.3337795 22.4170343,23.52717 22.0003151,23.6889485 C21.6860556,23.8116771 21.2133647,23.9567199 20.3431076,23.9965137 C19.4021886,24.0392828 19.119541,24.0485804 16.7363755,24.0485804 C14.353024,24.0485804 14.0705623,24.0392828 13.1296434,23.9965137 C12.2593863,23.956348 11.7870673,23.8109333 11.4722499,23.6887626 C11.0557166,23.526984 10.7581928,23.3335936 10.4457929,23.0211936 C10.1333929,22.7087936 9.94000242,22.4120136 9.77785196,21.9952944 C9.65568125,21.6810349 9.51008055,21.2087159 9.47047269,20.3384588 C9.42770365,19.3975398 9.41914984,19.1148922 9.41914984,16.7313548 C9.41914984,14.3478173 9.42770365,14.0666573 9.47047269,13.1257384 C9.5102665,12.2554813 9.65568125,11.7831623 9.77785196,11.4685309 C9.93963051,11.0519976 10.1333929,10.7544738 10.4457929,10.4420738 C10.7581928,10.1296738 11.0557166,9.93628337 11.4722499,9.77413291 C11.7868813,9.65140435 12.2593863,9.5063615 13.1296434,9.46638174 C13.9530404,9.42919127 14.2721347,9.41803413 15.9356646,9.4161746 L15.9356646,9.41840603 Z M21.500847,10.9004464 C20.9095185,10.9004464 20.4297614,11.3796456 20.4297614,11.9711601 C20.4297614,12.5624886 20.9095185,13.0422458 21.500847,13.0422458 C22.0921755,13.0422458 22.5719327,12.5624886 22.5719327,11.9711601 C22.5719327,11.3798316 22.0921755,10.9000745 21.500847,10.9000745 L21.500847,10.9004464 Z M16.7363755,12.1519058 C14.2050059,12.1519058 12.1526496,14.2042621 12.1526496,16.7356317 C12.1526496,19.2670012 14.2050059,21.3184278 16.7363755,21.3184278 C19.267745,21.3184278 21.3193575,19.2670012 21.3193575,16.7356317 C21.3193575,14.2042621 19.2675591,12.1519058 16.7361895,12.1519058 L16.7363755,12.1519058 Z" id="Combined-Shape"></path>
                    <path d="M16.7363755,13.7603938 C18.3794506,13.7603938 19.7116133,15.0923706 19.7116133,16.7356317 C19.7116133,18.3787068 18.3794506,19.7108695 16.7363755,19.7108695 C15.0931144,19.7108695 13.7611376,18.3787068 13.7611376,16.7356317 C13.7611376,15.0923706 15.0931144,13.7603938 16.7363755,13.7603938 L16.7363755,13.7603938 Z" id="Shape"></path>
                </g>
            </g>
        </g>
    </g>
</svg>