<?xml version="1.0" encoding="UTF-8"?>
<svg width="31px" height="31px" viewBox="0 0 31 31" version="1.1" xmlns="http://www.w3.org/2000/svg" xmlns:xlink="http://www.w3.org/1999/xlink">
    <!-- Generator: Sketch 50.2 (55047) - http://www.bohemiancoding.com/sketch -->
    <title>Instagram_black</title>
    <desc>Created with Sketch.</desc>
    <defs></defs>
    <g id="Landing" stroke="none" stroke-width="1" fill="none" fill-rule="evenodd">
        <g id="Landing-noise" transform="translate(-490.000000, -10751.000000)" fill="#000000">
            <g id="Instagram" transform="translate(490.000000, 10751.000000)">
                <path d="M0,15.2588735 C0,6.83162996 6.83162996,0 15.2588735,0 C23.6861171,0 30.517747,6.83162996 30.517747,15.2588735 C30.517747,23.6861171 23.6861171,30.517747 15.2588735,30.517747 C6.83162996,30.517747 0,23.6861171 0,15.2588735 Z M15.2596365,7.12080764 C13.0494504,7.12080764 12.7720751,7.13047169 11.9040057,7.16997563 C11.0376317,7.20964912 10.4462594,7.34681086 9.9288087,7.54806055 C9.39355575,7.75592248 8.93951476,8.03397596 8.48716922,8.48649104 C8.03448459,8.93883658 7.75643111,9.39287757 7.547891,9.92796098 C7.34613269,10.4455813 7.20880139,11.0371231 7.16980609,11.903158 C7.13098033,12.7712274 7.12080764,13.0487722 7.12080764,15.2589583 C7.12080764,17.4691444 7.13064124,17.7456719 7.16997563,18.6137413 C7.20981866,19.4801153 7.34698041,20.0714876 7.54806055,20.5889383 C7.75609202,21.1241913 8.0341455,21.5782323 8.48666059,22.0305778 C8.93883658,22.4832624 9.39287757,22.7619941 9.92779143,22.969856 C10.4455813,23.1711057 11.0371231,23.3082675 11.9033275,23.3479409 C12.7713969,23.3874449 13.0486027,23.3971089 15.2586192,23.3971089 C17.4689748,23.3971089 17.7455024,23.3874449 18.6135718,23.3479409 C19.4799458,23.3082675 20.0719962,23.1711057 20.589786,22.969856 C21.1248695,22.7619941 21.5782323,22.4832624 22.0304083,22.0305778 C22.4830929,21.5782323 22.7611464,21.1241913 22.9696865,20.5891079 C23.1697493,20.0714876 23.3070806,19.4799458 23.3477714,18.6139109 C23.3867667,17.7458415 23.3969394,17.4691444 23.3969394,15.2589583 C23.3969394,13.0487722 23.3867667,12.7713969 23.3477714,11.9033275 C23.3070806,11.0369535 23.1697493,10.4455813 22.9696865,9.92813052 C22.7611464,9.39287757 22.4830929,8.93883658 22.0304083,8.48649104 C21.5777236,8.03380642 21.125039,7.75575293 20.5892774,7.54806055 C20.0704703,7.34681086 19.4787589,7.20964912 18.612385,7.16997563 C17.7443156,7.13047169 17.4679576,7.12080764 15.2570933,7.12080764 L15.2596365,7.12080764 Z" id="Combined-Shape"></path>
                <path d="M14.5295765,8.5873702 C14.7462548,8.58703111 14.9880257,8.5873702 15.2596365,8.5873702 C17.4325227,8.5873702 17.6900612,8.59516926 18.5481275,8.63416457 C19.3415972,8.67044716 19.772241,8.8030312 20.0591108,8.91442213 C20.4388912,9.06192611 20.7096542,9.23825271 20.99432,9.52308798 C21.2791552,9.80792326 21.4554818,10.0791949 21.6033249,10.4589753 C21.7147158,10.745506 21.8474694,11.1761498 21.8835825,11.9696195 C21.9225778,12.8275162 21.931055,13.0852243 21.931055,15.2570933 C21.931055,17.4289622 21.9225778,17.6866704 21.8835825,18.5445671 C21.8472999,19.3380368 21.7147158,19.7686806 21.6033249,20.0552113 C21.4558209,20.4349916 21.2791552,20.7054156 20.99432,20.9900813 C20.7094847,21.2749166 20.4390607,21.4512432 20.0591108,21.5987472 C19.7725801,21.7106468 19.3415972,21.8428917 18.5481275,21.8791743 C17.6902308,21.9181696 17.4325227,21.9266468 15.2596365,21.9266468 C13.0865807,21.9266468 12.8290421,21.9181696 11.9711454,21.8791743 C11.1776757,21.8425526 10.7470319,21.7099686 10.4599926,21.5985776 C10.0802122,21.4510737 9.80894052,21.2747471 9.52410525,20.9899118 C9.23926998,20.7050765 9.06294338,20.434483 8.91510031,20.0545331 C8.80370938,19.7680024 8.67095579,19.3373586 8.63484275,18.5438889 C8.59584744,17.6859922 8.58804838,17.4282841 8.58804838,15.2550588 C8.58804838,13.0818334 8.59584744,12.8254817 8.63484275,11.967585 C8.67112534,11.1741153 8.80370938,10.7434715 8.91510031,10.4566017 C9.06260429,10.0768213 9.23926998,9.80554963 9.52410525,9.52071436 C9.80894052,9.23587908 10.0802122,9.05955249 10.4599926,8.91170942 C10.7468624,8.79980984 11.1776757,8.6675649 11.9711454,8.63111276 C12.7218898,8.5972038 13.0128287,8.58703111 14.5295765,8.58533567 L14.5295765,8.5873702 Z M19.6037135,9.9386423 C19.064561,9.9386423 18.6271354,10.3755593 18.6271354,10.9148813 C18.6271354,11.4540338 19.064561,11.8914594 19.6037135,11.8914594 C20.1428659,11.8914594 20.5802915,11.4540338 20.5802915,10.9148813 C20.5802915,10.3757288 20.1428659,9.93830321 19.6037135,9.93830321 L19.6037135,9.9386423 Z M15.2596365,11.0796788 C12.951623,11.0796788 11.080357,12.9509449 11.080357,15.2589583 C11.080357,17.5669717 12.951623,19.43739 15.2596365,19.43739 C17.5676499,19.43739 19.4382377,17.5669717 19.4382377,15.2589583 C19.4382377,12.9509449 17.5674804,11.0796788 15.2594669,11.0796788 L15.2596365,11.0796788 Z" id="Combined-Shape"></path>
                <path d="M15.2596365,12.5462414 C16.7577344,12.5462414 17.9723533,13.7606908 17.9723533,15.2589583 C17.9723533,16.7570562 16.7577344,17.9716752 15.2596365,17.9716752 C13.761369,17.9716752 12.5469196,16.7570562 12.5469196,15.2589583 C12.5469196,13.7606908 13.761369,12.5462414 15.2596365,12.5462414 L15.2596365,12.5462414 Z" id="Shape"></path>
            </g>
        </g>
    </g>
</svg>