<?xml version="1.0" encoding="UTF-8"?>
<svg width="31px" height="31px" viewBox="0 0 31 31" version="1.1" xmlns="http://www.w3.org/2000/svg" xmlns:xlink="http://www.w3.org/1999/xlink">
    <!-- Generator: Sketch 50.2 (55047) - http://www.bohemiancoding.com/sketch -->
    <title>LinkedIN_black</title>
    <desc>Created with Sketch.</desc>
    <defs></defs>
    <g id="Landing" stroke="none" stroke-width="1" fill="none" fill-rule="evenodd">
        <g id="Landing-noise" transform="translate(-401.000000, -10751.000000)" fill="#000000">
            <g id="LinkedIN" transform="translate(401.000000, 10751.000000)">
                <path d="M0,15.2588735 C0,6.83162996 6.83162996,0 15.2588735,0 C23.6861171,0 30.517747,6.83162996 30.517747,15.2588735 C30.517747,23.6861171 23.6861171,30.517747 15.2588735,30.517747 C6.83162996,30.517747 0,23.6861171 0,15.2588735 Z M10.7832819,12.6380655 L7.32528744,12.6380655 L7.32528744,23.0279034 L10.7832819,23.0279034 L10.7832819,12.6380655 Z M11.0110341,9.42406956 C10.9885904,8.40535254 10.2601009,7.62943676 9.07714274,7.62943676 C7.89418463,7.62943676 7.12080764,8.40535254 7.12080764,9.42406956 C7.12080764,10.4216854 7.87132654,11.2199436 9.03225525,11.2199436 L9.05435371,11.2199436 C10.2601009,11.2199436 11.0110341,10.4216854 11.0110341,9.42406956 Z M23.2541326,17.0706879 C23.2541326,13.8793791 21.5482007,12.394092 19.2726809,12.394092 C17.4367134,12.394092 16.6147198,13.4025343 16.1557624,14.1099748 L16.1557624,12.6383414 L12.6973537,12.6383414 C12.7429317,13.61327 12.6973537,23.0281792 12.6973537,23.0281792 L16.1557624,23.0281792 L16.1557624,17.2256366 C16.1557624,16.9151186 16.1782062,16.6053591 16.2696385,16.3830384 C16.5195583,15.7626919 17.0885936,15.1204168 18.0439376,15.1204168 C19.2957462,15.1204168 19.7961382,16.073141 19.7961382,17.4693343 L19.7961382,23.0279034 L23.2539945,23.0279034 L23.2541326,17.0706879 Z" id="Combined-Shape"></path>
            </g>
        </g>
    </g>
</svg>