<?xml version="1.0" encoding="UTF-8" standalone="no"?>
<svg width="34px" height="34px" viewBox="0 0 34 34" version="1.1" xmlns="http://www.w3.org/2000/svg" xmlns:xlink="http://www.w3.org/1999/xlink">
    <!-- Generator: Sketch 50.2 (55047) - http://www.bohemiancoding.com/sketch -->
    <title>Combined Shape</title>
    <desc>Created with Sketch.</desc>
    <defs></defs>
    <g id="Landing" stroke="none" stroke-width="1" fill="none" fill-rule="evenodd">
        <g id="Mobile" transform="translate(-104.000000, -6963.000000)" fill="#FFFFFF">
            <g id="Group-9-Copy-2" transform="translate(104.000000, 6963.000000)">
                <g id="LinkedIN">
                    <path d="M0,16.7355387 C0,7.49275543 7.49275543,0 16.7355387,0 C25.9783219,0 33.4710774,7.49275543 33.4710774,16.7355387 C33.4710774,25.9783219 25.9783219,33.4710774 16.7355387,33.4710774 C7.49275543,33.4710774 0,25.9783219 0,16.7355387 Z M11.8268253,13.8611041 L8.03418622,13.8611041 L8.03418622,25.2564102 L11.8268253,25.2564102 L11.8268253,13.8611041 Z M12.076618,10.3360763 C12.0520023,9.21877375 11.2530138,8.36776935 9.95557591,8.36776935 C8.65813798,8.36776935 7.80991806,9.21877375 7.80991806,10.3360763 C7.80991806,11.4302356 8.63306782,12.3057446 9.90634447,12.3057446 L9.93058148,12.3057446 C11.2530138,12.3057446 12.076618,11.4302356 12.076618,10.3360763 Z M25.5045325,18.7226899 C25.5045325,15.2225448 23.6335104,13.5935203 21.1377791,13.5935203 C19.1241373,13.5935203 18.2225959,14.6995537 17.7192233,15.4754562 L17.7192233,13.8614067 L13.9261298,13.8614067 C13.9761187,14.9306833 13.9261298,25.2567127 13.9261298,25.2567127 L17.7192233,25.2567127 L17.7192233,18.8926337 C17.7192233,18.5520655 17.743839,18.2123293 17.8441197,17.9684937 C18.1182252,17.2881137 18.7423285,16.5836829 19.7901251,16.5836829 C21.1630765,16.5836829 21.7118935,17.6286062 21.7118935,19.159915 L21.7118935,25.2564102 L25.5043811,25.2564102 L25.5045325,18.7226899 Z" id="Combined-Shape"></path>
                </g>
            </g>
        </g>
    </g>
</svg>