<?xml version="1.0" encoding="UTF-8"?>
<svg width="635px" height="601px" viewBox="0 0 635 601" version="1.1" xmlns="http://www.w3.org/2000/svg" xmlns:xlink="http://www.w3.org/1999/xlink">
    <!-- Generator: Sketch 50.2 (55047) - http://www.bohemiancoding.com/sketch -->
    <title>us/mc_first_company_pictures</title>
    <desc>Created with Sketch.</desc>
    <defs>
        <polygon id="path-1" points="0.216045413 0.778870923 270.108058 0.778870923 270.108058 114.514201 0.216045413 114.514201"></polygon>
    </defs>
    <g id="Landing" stroke="none" stroke-width="1" fill="none" fill-rule="evenodd">
        <g id="Landing-noise" transform="translate(-756.000000, -9752.000000)">
            <g id="us/mc_first_company_pictures" transform="translate(702.000000, 9711.000000)">
                <g id="Group-3" transform="translate(344.779291, 534.544817) rotate(-44.000000) translate(-344.779291, -534.544817) translate(96.279291, 295.544817)" fill="#C29B23">
                    <g id="Group-28" transform="translate(0.000000, 0.000000)">
                        <path d="M376.405777,394.820104 C380.951381,393.987946 386.45426,393.85272 389.848233,392.183202 C398.159117,388.100424 402.669911,388.644795 407.015358,394.684878 C415.804879,406.893337 434.996784,409.440089 455.653609,410.825286 C451.296559,408.522981 446.411558,406.475524 442.79422,403.814351 C440.870969,402.397948 441.140746,399.917075 440.42134,397.916427 C443.577445,397.847081 447.455858,397.032259 449.773622,397.831478 C464.428626,402.886841 478.738431,408.301072 496.4103,414.788441 C488.859434,416.353939 482.463099,418.631973 475.863706,418.869485 C458.325275,419.498805 452.987744,422.310807 455.256195,432.773466 C457.179447,441.627286 461.632224,450.304272 463.105847,459.168494 C464.066022,464.951995 469.850281,472.212578 457.997481,476.390707 C448.674207,479.679467 430.732561,475.452795 422.589925,468.438393 C417.55118,464.095566 413.887429,459.182363 411.328895,453.38846 C416.094962,455.406444 420.872632,457.412293 425.621294,459.444146 C430.55561,461.557482 435.460917,463.696823 442.254666,466.635383 C446.008342,449.163522 426.343602,433.350776 440.589588,417.588307 C425.25869,413.671962 410.51086,409.906444 392.62723,405.339975 C391.446592,409.235517 386.491971,415.195852 389.581357,418.120542 C393.088463,421.438774 403.795434,422.038622 411.746615,423.909245 C409.32442,428.55893 398.115605,430.627191 385.012546,427.63142 C367.613355,423.652663 364.869168,417.524162 374.459319,403.280382 C366.342791,401.009283 358.18275,398.727782 345.59604,395.206711 C357.997097,390.446071 368.097794,387.134774 377.096175,382.972248 C388.394916,377.746986 399.655947,372.284212 409.106857,365.951139 C412.384798,363.752854 412.863435,356.917018 409.887181,355.290842 C405.712884,353.009341 395.255384,351.742033 390.767797,353.337003 C377.673441,357.997091 366.600965,364.628354 353.973643,369.829344 C345.184122,373.449234 337.29966,380.130773 320.988281,375.059807 C335.852145,367.858169 348.9436,360.814294 363.262107,354.819285 C373.003101,350.739975 383.971147,346.787222 395.316302,345.294538 C403.879558,344.167657 416.176185,345.414161 422.560917,348.624905 C427.564852,351.140451 428.728086,358.650682 426.923768,363.295166 C422.357858,375.066742 404.16384,379.803111 389.094017,385.929878 C384.412074,387.835174 379.58799,389.613913 374.827725,391.449862 C375.352775,392.573276 375.880727,393.69669 376.405777,394.820104" id="Fill-1"></path>
                        <path d="M200.698706,289.718233 C193.396063,289.161423 183.896011,290.112639 179.426413,287.608781 C175.207044,285.24234 173.423807,278.590964 175.57232,274.966348 C181.468507,265.01873 189.85835,255.631492 197.546403,246.10862 C200.261526,242.748131 203.796362,239.644632 205.999522,237.401332 C185.052239,234.804671 164.568021,232.893315 144.670547,229.614921 C126.659852,226.645269 121.384921,216.847562 129.484269,206.416306 C138.009293,195.435378 151.527381,189.331888 171.111351,189.090961 C183.03603,188.94462 195.121776,189.074899 206.894017,190.120702 C220.955705,191.371739 222.871246,195.788738 213.040433,204.358609 C200.261526,193.468698 183.335154,192.944012 164.772231,197.120084 C151.73159,200.054042 145.012813,206.899945 146.381879,214.320503 C147.129688,218.360942 156.81094,223.227672 164.179736,225.049796 C182.972754,229.693445 202.602743,232.363276 222.603761,226.329387 C226.112711,225.269307 231.295604,226.347233 235.704801,226.436466 C234.24945,229.043834 233.527526,231.93496 231.220823,234.206815 C219.762086,245.489348 207.477883,256.454214 196.312518,267.843825 C189.73755,274.550525 184.013935,281.906837 203.1636,286.393437 C202.34101,287.501702 201.521296,288.609967 200.698706,289.718233" id="Fill-11"></path>
                        <path d="M47.9429599,68.0456116 C54.9087082,67.0234311 58.217226,66.3704197 61.6107957,66.0743878 C69.9997453,65.3412737 78.5049324,65.0347937 86.8230055,64.0874918 C117.844258,60.5594889 128.356669,49.4478469 117.166678,31.4247323 C113.855325,26.0891938 108.956338,20.981774 103.532863,16.318402 C94.2253534,8.30987015 82.3889679,8.04866559 69.4270627,14.7877432 C72.5342911,1.25734704 87.8266176,-3.43562822 104.366372,2.90815986 C129.020074,12.3672476 145.40957,35.8965544 135.271387,52.2026844 C131.478073,58.3044229 119.891173,64.4584023 109.602732,66.7204338 C93.6243201,70.2345058 75.7464167,70.5653649 58.5999594,71.8940254 C56.3347446,72.0681618 53.6471054,70.1805235 47.9429599,68.0456116" id="Fill-21"></path>
                        <path d="M301.147065,290.226813 C288.423484,295.128324 278.122592,297.978556 270.69083,302.244393 C261.511993,307.513676 253.973085,313.729338 247.187175,319.98463 C243.249561,323.617963 246.508584,326.419053 255.371935,326.939006 C281.601859,328.478259 315.748677,315.831345 321.608965,301.919422 C332.564639,303.013226 331.329484,306.863735 328.415709,310.690464 C316.397506,326.480877 268.518148,338.154463 237.776189,332.916885 C226.362169,330.971815 221.406669,324.867119 229.133083,317.998345 C243.368613,305.346676 263.351332,295.567431 289.301486,289.740149 C291.209279,289.312139 293.911738,289.88916 301.147065,290.226813" id="Fill-25"></path>
                        <path d="M0.471491964,94.0708591 C5.51673581,90.0922283 10.4151679,86.0366481 15.6778061,82.1716925 C17.7529344,80.6466965 21.4401691,79.8404772 23.0240425,78.2000571 C36.6916561,64.0553689 50.0656461,49.802252 63.4509293,35.5526328 C64.3741496,34.568031 64.117229,32.8506616 65.3481894,32.3382489 C69.4956227,30.6103864 74.0665515,29.274266 78.4737287,27.7877446 C79.2896635,30.5544232 82.2513091,34.0381298 80.5686201,35.9741054 C69.4899761,48.7407008 58.0443026,61.4268493 45.4100182,73.6180736 C38.3658752,80.4158484 29.2042545,86.4476276 20.1837989,92.3447454 C16.4796244,94.7669008 10.6269156,95.9246387 5.75107002,97.6577477 C3.98932847,96.4615352 2.23041022,95.2670716 0.471491964,94.0708591" id="Fill-31"></path>
                        <path d="M73.9822096,195.978232 C66.6563339,196.489014 59.3332091,196.999795 52.0073334,197.512421 C51.9385587,193.411416 49.721264,188.578352 52.1751435,185.33664 C62.0374284,172.316318 72.928582,159.616848 84.4084465,147.199507 C87.2997328,144.070278 93.7755539,142.430982 98.6062853,140.105727 C99.844229,140.703176 101.079422,141.302468 102.317365,141.899917 C101.26924,144.802337 101.112434,148.042204 99.0161822,150.550013 C90.7907341,160.378411 81.7867569,169.913616 73.4210084,179.690383 C69.6769165,184.067984 63.3579016,188.777502 77.3191556,193.247302 C76.2077573,194.156383 75.0936079,195.067307 73.9822096,195.978232" id="Fill-33"></path>
                        <path d="M270.078368,262.295867 C262.338798,257.841801 254.168592,253.611915 246.954694,248.883272 C235.520564,241.389736 224.324025,233.741533 213.908571,225.76488 C210.775322,223.366671 207.570796,218.280033 209.554692,216.813302 C216.133029,211.954321 222.346069,216.281526 226.085178,219.287977 C242.737431,232.665815 258.688786,246.340822 274.892582,259.908084 C273.288834,260.704012 271.682116,261.499939 270.078368,262.295867" id="Fill-39"></path>
                        <path d="M134.97385,134.744574 C135.60403,129.251487 135.322793,123.546814 137.304477,118.36907 C138.114337,116.255249 143.822419,115.286838 147.301433,113.795566 C148.093065,116.44242 150.387235,119.526687 149.376863,121.650681 C146.95249,126.734839 142.973498,131.367343 139.624687,136.18295 C138.072672,135.702813 136.523261,135.224711 134.97385,134.744574" id="Fill-41"></path>
                    </g>
                </g>
                <g id="Group-27" transform="translate(369.897451, 376.051747) rotate(-53.000000) translate(-369.897451, -376.051747) translate(147.897451, 125.551747)" fill="#C29B23">
                    <path d="M105.84339,22.6054345 C115.811279,13.3656151 105.65794,10.1652307 94.9511519,7.77354562 C70.3182942,2.26750797 38.1225899,7.94388866 21.8957926,20.2739717 C13.2550231,26.8364803 13.3390547,31.9811843 25.4077352,36.0350045 C44.7523956,42.5338496 65.2966799,47.7714679 87.3303525,54.1171763 C87.1159269,54.3666686 85.1107584,56.6654393 83.137464,58.9728132 C75.2761602,68.1764993 70.5240268,77.7638873 77.9419912,87.736698 C84.6268521,96.7235838 96.4955952,97.3172035 106.834383,89.7240335 C126.031264,75.6251358 120.059223,55.4317427 93.8674336,45.828869 C91.0712087,44.8033694 88.3416296,43.7090445 85.2469476,42.5183638 C103.594819,43.0311136 125.356113,50.6001947 129.76053,58.9039877 C136.665611,71.9257668 130.200971,83.6691127 117.225329,94.392121 C107.744243,102.227901 94.6440018,103.933052 80.1210183,100.95635 C65.8443343,98.0312678 60.8835706,90.9594507 61.3298075,82.5506988 C61.7760445,74.1608739 63.0423142,65.7848142 64.1028513,55.9703021 C55.4389006,53.6560456 42.7327389,51.0750905 31.5159653,47.0315941 C21.0207046,43.2479138 10.8181059,38.5488548 3.06401493,32.9843155 C-0.540652166,30.3964778 -1.13177121,23.4382227 2.1860293,20.7970453 C28.7197404,-0.328932907 77.4667779,-6.08618352 117.129707,6.88225578 C121.371855,8.26908901 125.857405,13.5307962 124.518695,15.8140812 C122.620739,19.0557609 115.4172,21.2031156 110.482515,23.8184835 C108.935174,23.4141338 107.390731,23.0097842 105.84339,22.6054345" id="Fill-7"></path>
                    <path d="M248.836688,287.139555 C256.093058,280.397061 262.083582,274.831801 269.47486,267.966507 C248.868262,272.667261 241.215778,279.355723 248.836688,287.139555 Z M165.127229,287.779748 C181.594711,283.88292 198.062192,279.986093 213.229383,276.397082 C212.514654,272.549373 211.963537,269.584182 211.41242,266.617354 C216.782938,267.458937 222.087436,268.511736 227.546935,269.070063 C231.720496,269.497404 236.714991,270.114675 240.259935,269.230521 C251.592272,266.406139 262.224231,262.668132 273.547957,259.833926 C277.374199,258.876092 282.463418,259.562131 286.975686,259.496638 C286.771887,261.967357 288.106623,264.973482 286.126047,266.825294 C267.072336,284.624628 247.834919,302.36993 227.713419,319.779581 C223.252818,323.642025 215.746723,327.605983 207.976552,324.468873 C216.487286,316.963386 223.103557,309.457899 232.458189,303.309753 C243.807748,295.848474 233.821629,290.748214 228.580279,285.178043 C227.486657,284.013906 220.833071,283.711002 217.365629,284.269329 C206.822651,285.968869 196.704493,288.514906 186.18735,290.271753 C180.188215,291.273795 173.732687,291.381858 167.480957,291.892703 L165.127229,287.779748 Z" id="Fill-13"></path>
                    <path d="M184.045536,202.95353 C203.126346,198.555689 219.939845,195.193196 235.922379,190.870218 C256.002632,185.438621 261.976451,178.068533 256.490932,165.747886 C250.594214,167.842476 244.908806,169.371606 240.277098,171.587251 C212.17274,185.037224 184.573814,198.816915 156.169622,212.064596 C149.656104,215.100557 140.66111,216.478366 132.805482,218.619148 C131.951671,217.883255 131.097861,217.147361 130.241195,216.411467 C130.803739,214.9795 130.498195,213.074459 132.057327,212.185653 C152.842902,200.322152 168.645536,184.968732 202.81509,182.592209 C210.31663,182.071349 217.395547,177.920398 223.866232,174.903552 C234.383236,169.997593 244.18064,164.612189 254.394956,159.497567 C262.687483,155.345024 269.583645,156.383558 273.824143,162.320087 C281.285704,172.77392 274.400964,187.16367 254.717633,192.757738 C235.179935,198.308798 213.063672,201.053268 191.972553,204.845829 C190.410565,205.126169 188.003334,203.942686 184.045536,202.95353" id="Fill-15"></path>
                    <path d="M319.844611,357.126466 C306.622579,359.197616 293.13809,360.915374 280.257252,363.439822 C267.77885,365.886732 255.924514,369.162699 243.796056,372.074835 C242.769555,371.49032 241.740138,370.904314 240.713637,370.319799 C246.388554,367.573176 251.162367,363.57253 257.904611,362.303597 C282.362746,357.702034 307.412868,353.899706 332.433829,350.1272 C335.743711,349.629169 340.158831,351.053178 344.063618,351.585504 C342.967128,353.3808 342.733832,355.513086 340.634171,356.914728 C329.14436,364.589467 316.537645,371.848186 305.706894,379.748082 C300.801852,383.325253 299.116291,388.055051 295.969716,392.262961 C303.97759,393.48567 312.62411,396.344127 319.873773,395.60901 C337.263049,393.845028 353.990348,390.384163 370.997602,387.630085 C375.272746,386.93821 379.597464,386.328347 387.234981,385.17721 C384.39169,388.126624 383.782205,390.039717 382.058733,390.35285 C359.778997,394.404194 337.414691,398.345195 314.875413,401.999903 C311.017286,402.624678 305.695229,402.393556 302.020822,401.504855 C293.791317,399.514225 282.493975,397.778573 279.140349,394.267012 C273.710393,388.579921 280.983385,383.004664 289.594912,378.459764 C301.157628,372.358145 312.198346,366.000056 323.46361,359.752309 C322.256305,358.877028 321.051916,358.001747 319.844611,357.126466" id="Fill-17"></path>
                    <path d="M140.909535,143.906542 C128.389936,140.392123 118.748002,137.255704 108.474385,135.023551 C104.614102,134.184457 98.8880162,134.901352 94.6943451,135.847981 C79.0952928,139.368917 63.7799127,143.280888 44.1889768,148.062909 C47.4936129,144.569671 48.64,141.051993 51.9914275,140.185201 C74.3576728,134.401155 96.9110834,128.767005 119.990896,123.955656 C131.817399,121.490512 133.990271,125.961335 130.404887,131.885502 C136.917652,132.894044 142.4478,133.785276 148.015965,134.604818 C163.296252,136.853264 165.472048,139.367288 155.797945,147.055996 C144.94821,155.678299 132.352575,163.611403 120.976438,172.036559 C116.373343,175.445073 113.364077,179.515087 108.87796,182.983885 C106.605658,184.741909 102.66349,185.830288 99.4787564,187.221718 C97.1011731,184.389979 91.4657449,180.737068 92.9718401,178.886174 C97.0865508,173.822282 103.932704,169.398708 110.205664,164.942549 C120.002594,157.982141 130.220646,151.205846 140.909535,143.906542" id="Fill-19"></path>
                    <path d="M443.052636,468.098324 C433.963244,472.154055 425.982386,477.897674 415.583703,479.963137 C378.379461,487.357847 340.366367,493.520638 302.586037,500.022606 C301.736452,500.168197 300.022735,498.789088 296.531292,497.010006 C321.474747,491.154395 344.378618,485.124395 368.120435,480.356711 C401.393894,473.675554 401.609199,474.088327 390.294012,455.819139 C387.014965,450.52509 383.110367,445.243841 381.539217,439.778603 C380.803104,437.212374 384.917189,434.222172 386.834573,431.423958 C390.49768,433.34703 396.136361,434.930925 397.4602,437.255571 C401.929248,445.11265 405.324677,453.182514 408.240033,461.266778 C410.465828,467.445568 414.396612,469.624623 425.918376,466.316043 C430.404881,465.028128 437.137548,466.106457 442.848968,466.106457 C442.915888,466.770413 442.985717,467.434368 443.052636,468.098324" id="Fill-23"></path>
                </g>
                <g id="Group-29" transform="translate(35.000000, 0.000000)">
                    <g id="Group-6" transform="translate(128.300908, 143.100682) rotate(-53.000000) translate(-128.300908, -143.100682) translate(-7.199092, 85.600682)">
                        <mask id="mask-2" fill="white">
                            <use xlink:href="#path-1"></use>
                        </mask>
                        <g id="Clip-5"></g>
                        <path d="M0.216045413,113.803793 C4.74059266,103.365851 38.3002093,86.5169152 94.3689881,65.8401204 C89.6694754,56.9095653 90.2987374,56.5916924 106.837584,57.0601367 C110.51493,57.1638636 115.149982,56.5632512 117.931013,55.335258 C140.501566,45.3607414 162.734467,35.1603678 187.726912,23.8240168 C177.382459,19.6732661 168.962626,15.8838867 159.803027,12.730253 C150.499158,9.5247559 140.467801,6.94496647 130.755679,4.09247556 C130.930645,3.15391404 131.105611,2.21702553 131.280576,1.278464 C138.110371,1.278464 146.103533,0.0153375269 151.564299,1.50599407 C171.07756,6.83454747 193.721784,11.0990632 207.801905,19.4591201 C230.924981,33.1912289 248.406186,49.7607714 267.882612,65.2746413 C269.982199,66.9493295 270.264599,69.5843284 270.04666,71.73248 C269.914668,73.0307397 267.514264,74.4728788 265.430025,75.3612499 C264.852946,75.6071831 261.240061,74.3105964 259.895589,73.3553047 C242.601628,61.0720271 225.485701,48.7134639 208.277688,36.39338 C202.147755,32.0067341 196.278736,30.564595 186.775345,34.7705552 C165.871569,44.0223293 143.939486,52.584821 120.349835,62.2799441 C137.745092,69.3216651 154.127391,74.8660374 168.001851,81.8826631 C181.575492,88.7453715 196.797494,95.9242797 194.67949,106.568002 C182.201685,100.570243 169.423062,93.9467757 155.699011,87.9707654 C142.570457,82.2557455 128.827989,76.8853668 114.529929,72.0938512 C110.708313,70.8139946 102.328385,71.080004 98.6663871,72.5622955 C75.2977452,82.0148313 52.5460871,91.9257734 29.8895856,101.885233 C25.2606729,103.919619 19.6494976,106.509447 18.3971128,109.353573 C15.6866818,115.511942 9.3173226,114.916348 0.216045413,113.803793" id="Fill-4" fill="#C29B23" mask="url(#mask-2)"></path>
                    </g>
                    <path d="M317.629541,222 C294.923867,215.333915 295.354737,202.239882 319.167931,193.336366 C334.776375,187.500209 352.454213,183.595813 368.891021,178.481179 C397.792738,169.485251 398.299466,159.641623 370.796562,148.514894 C352.220572,140.997555 350.466746,141.875466 338.629938,152.671646 C322.047483,167.795182 303.419909,182.152768 285.502362,196.76804 C283.490621,198.408349 280.717269,200.363213 277.71938,200.796837 C273.765686,201.369079 268.586134,201.235793 265.236266,200.093086 C263.606846,199.536838 263.588641,195.561356 265.178614,193.899722 C270.324789,188.514961 276.147612,183.307915 282.449855,178.355001 C296.914368,166.988357 312.225451,155.984251 326.404739,144.498538 C336.196428,136.567123 352.797089,132.053164 366.757907,137.180239 C381.246695,142.5028 394.206194,149.88863 405.169123,157.663657 C413.467936,163.549574 410.843266,171.045588 399.073213,175.387162 C382.059887,181.660498 363.993659,186.952847 346.840756,193.105337 C337.14313,196.583217 327.460676,200.405864 319.43495,205.05844 C311.303023,209.771439 308.963577,215.813745 317.629541,222" id="Fill-9" fill="#C29B23" transform="translate(337.000000, 178.500000) rotate(-53.000000) translate(-337.000000, -178.500000) "></path>
                    <path d="M543,185.750072 C535.863299,189.448384 530.997085,190.6174 522.141256,186.374976 C504.606159,177.979165 471.437844,184.305702 464.112194,196.924151 C461.705416,201.070943 460.506673,205.537607 460.209311,209.885555 C459.654854,218.067019 450.54193,222.063768 436.525623,218.937598 C425.916595,216.571536 416.224434,213.044701 407,208.202106 C411.841434,208.802278 416.648795,209.516218 421.536692,209.977889 C432.545301,211.018297 440.391336,210.820438 443.891541,203.047883 C454.949711,178.480407 501.32278,169.589949 541.342823,183.766537 C542.036669,184.01386 542.166765,184.712961 543,185.750072" id="Fill-27" fill="#C29B23" transform="translate(475.000000, 198.500000) rotate(-53.000000) translate(-475.000000, -198.500000) "></path>
                    <path d="M508,227.463513 C522.778671,220.591248 537.230827,213.495051 552.418406,206.898142 C574.581836,197.26901 597.358628,188.056228 619.66243,178.521645 C623.501283,176.879468 626.156134,174.442742 629.598286,172.498669 C637.03187,168.301993 645.08797,165.657921 659,170.949382 C608.988097,191.214517 562.827254,212.508086 512.800093,231 L508,227.463513 Z" id="Fill-29" fill="#C29B23" transform="translate(583.500000, 199.500000) rotate(-53.000000) translate(-583.500000, -199.500000) "></path>
                    <path d="M645.673791,156 C628.364496,144.621789 611.241024,133.143897 593.68087,121.899803 C583.299629,115.251941 572.023347,109.082551 561.639009,102.438314 C559.362693,100.982961 559.158289,98.4202357 558,96.366793 C561.787666,96.3613558 566.715039,95.4551587 569.161692,96.5117846 C579.03502,100.781785 589.478202,105.001039 597.248647,110.445471 C613.034203,121.502888 627.444679,133.247203 641.898513,144.931709 C645.330021,147.702859 646.689616,151.353021 649,154.599019 C647.891264,155.066617 646.782527,155.532402 645.673791,156" id="Fill-35" fill="#C29B23" transform="translate(603.500000, 126.000000) rotate(-53.000000) translate(-603.500000, -126.000000) "></path>
                    <path d="M173.593374,260 C167.91429,258.154883 161.647284,256.90964 157.825786,254.526996 C156.021363,253.401391 157.381717,249.294953 159.902279,247.903111 C179.087949,237.314332 198.408091,226.759253 218.810261,216.869765 C226.281258,213.246933 236.26969,209.489298 248,214.22257 C233.023606,221.227273 217.437399,227.418103 204.449936,234.918208 C192.525737,241.803273 172.786543,246.27368 173.593374,260" id="Fill-37" fill="#C29B23" transform="translate(202.500000, 236.000000) rotate(-53.000000) translate(-202.500000, -236.000000) "></path>
                    <path d="M266.854903,116 C262.68087,112.310065 259.238907,110.171023 258.017764,107.681893 C257.60559,106.843431 264.495667,103.734643 265.221586,104.018215 C268.805041,105.411568 272.656102,107.370314 273.923384,109.588126 C274.62162,110.809935 270.410675,112.940225 266.854903,116" id="Fill-43" fill="#C29B23" transform="translate(266.000000, 110.000000) rotate(-53.000000) translate(-266.000000, -110.000000) "></path>
                </g>
            </g>
        </g>
    </g>
</svg>