<?xml version="1.0" encoding="UTF-8"?>
<svg width="316px" height="236px" viewBox="0 0 316 236" version="1.1" xmlns="http://www.w3.org/2000/svg" xmlns:xlink="http://www.w3.org/1999/xlink">
    <!-- Generator: Sketch 50.2 (55047) - http://www.bohemiancoding.com/sketch -->
    <title>us/mc_hi_ma_friend</title>
    <desc>Created with Sketch.</desc>
    <defs></defs>
    <g id="Landing" stroke="none" stroke-width="1" fill="none" fill-rule="evenodd">
        <g id="Landing-noise" transform="translate(-98.000000, -9649.000000)" fill="#000000">
            <g id="us/mc_hi_ma_friend" transform="translate(249.905897, 9786.479760) rotate(11.000000) translate(-249.905897, -9786.479760) translate(76.905897, 9675.979760)">
                <path d="M323.980996,164.411646 C325.057398,163.177514 325.897384,161.497178 327.249423,160.782164 C335.842118,156.240686 340.30461,148.537696 339.906952,139.55704 C339.483146,129.97129 333.070492,122.463105 324.604176,118.459247 C314.181163,113.528158 303.000964,110.192517 292.135623,106.202807 C291.503727,105.970999 290.756347,106.056975 289.172249,105.915496 C298.668119,120.436689 309.49206,133.483235 314.390342,149.682588 C313.873931,150.061316 313.35643,150.441133 312.838929,150.819862 C311.518484,149.365892 309.963803,148.062108 308.913548,146.434011 C301.758961,135.339876 294.680638,124.196767 287.650251,113.024275 C285.728416,109.969415 283.800044,106.867759 282.385905,103.56912 C281.775799,102.146712 281.881478,99.7132718 282.757416,98.5934106 C283.39476,97.7782735 285.998606,97.8903685 287.433446,98.4040463 C298.329292,102.300162 309.256733,106.141863 319.971726,110.498329 C332.530112,115.604635 341.536807,124.300156 344.93815,137.846232 C347.595381,148.428866 339.93092,162.166482 329.639733,165.363909 C328.167851,165.822084 326.48679,165.604424 324.901603,165.700194 L323.980996,164.411646 Z" id="Fill-5"></path>
                <path d="M109.802823,149.225216 C107.541779,151.815506 105.279671,154.405796 102.470656,157.623514 C102.400431,156.051721 101.986527,154.917193 102.377022,154.325219 C108.669641,144.79669 113.978041,134.385035 124.522487,128.577027 C127.737958,126.806476 130.788505,124.625518 134.173155,123.315869 C135.850052,122.666954 138.321772,123.098848 140.06783,123.878836 C142.834284,125.115428 143.193923,127.033166 140.301915,128.974541 C138.504784,130.179977 136.913009,131.696978 135.476581,132.872331 C133.300658,133.101171 130.640606,132.628451 128.957325,133.708186 C124.841693,136.350045 121.133581,139.656936 117.369075,142.826308 C116.627453,143.450513 115.881574,144.705369 115.964568,145.590645 C116.635965,152.778136 117.504206,159.947362 118.321374,167.196092 C126.098302,164.002009 133.219793,161.076518 140.341284,158.151027 C140.657298,158.807463 140.974376,159.463899 141.29039,160.120335 C140.458326,160.725201 139.673079,161.410645 138.787813,161.922042 C132.86441,165.340666 126.814388,168.555161 121.066547,172.249897 C119.822707,173.049223 118.961914,175.582572 119.077892,177.234943 C119.99827,190.374407 121.20487,203.493458 122.296555,216.622178 C122.394445,217.802903 122.309324,218.999744 122.309324,220.317988 C118.142618,220.377078 116.79344,217.914637 116.504026,214.604523 C115.646425,204.820296 114.897355,195.027474 114.068483,185.240024 C113.936544,183.689718 113.613082,182.155527 113.208754,179.502924 C108.79626,182.837748 105.044522,185.672993 101.291721,188.508238 C100.861857,188.103203 100.430928,187.697093 100,187.292058 C102.269556,184.36979 104.103928,180.888853 106.910815,178.655251 C111.134977,175.294643 112.694832,171.489248 112.288376,166.174372 C111.874472,160.757432 112.19687,155.282476 112.19687,149.833306 C111.398855,149.630251 110.600839,149.428271 109.802823,149.225216" id="Fill-10"></path>
                <path d="M239.378704,150.684617 C236.375226,157.413064 231.825444,159.385103 227.148951,160.976326 C219.749247,163.494234 217.171002,170.822492 221.939843,177.014778 C222.799974,178.130252 225.208556,179.031046 226.492846,178.646995 C230.681824,177.39775 234.736574,175.626368 238.727969,173.803204 C240.221654,173.120326 241.399636,171.741626 243.850097,171.252931 C243.476407,172.809633 243.585937,174.800011 242.650638,175.850757 C237.452269,181.692435 231.659002,186.579378 223.241315,186.991478 C220.178776,187.14143 218.42093,186.182381 217.919456,183.180094 C216.482683,174.571306 215.246714,165.923682 213.618801,157.351573 C212.741488,152.728935 211.020153,148.270273 210.103109,143.65195 C209.788479,142.062884 210.201901,139.704637 211.233843,138.571902 C217.00456,132.236137 224.88641,131.795988 233.265439,132.05382 C232.180879,132.970796 231.20048,134.07764 229.98384,134.754045 C228.592167,135.526463 226.981435,135.893253 225.480233,136.474724 C216.195972,140.077901 214.52618,144.265784 219.103881,153.223023 C219.619315,154.232776 221.670314,155.244686 222.746283,155.013823 C225.488823,154.426959 228.032706,152.958718 230.752696,152.184143 C233.095775,151.517447 235.570933,151.321107 239.378704,150.684617" id="Fill-12"></path>
                <path d="M137.287808,149.16192 C140.131507,150.633842 143.769626,151.446121 145.684881,153.691897 C154.712085,164.279275 160.216821,176.834909 164.608288,189.837776 C165.096829,191.285148 163.493939,193.420983 162.861645,195.23767 C162.230433,195.217389 161.598139,195.198177 160.966926,195.177896 C159.081935,191.619239 155.24278,187.803343 155.682683,184.551025 C156.926734,175.348043 150.028791,170.014327 146.865162,163.03684 C145.314151,159.615876 141.806814,156.457488 138.391349,154.607712 C133.256262,151.825043 133.642123,147.819152 134.545708,143.656356 C135.459021,139.454066 138.476736,137.028971 143.003308,136.782405 C145.680557,136.637241 148.392394,136.706621 151.02749,136.296745 C161.117164,134.725557 167.145028,139.418843 167.603305,149.776733 C167.846495,155.266287 167.433613,160.783593 167.373086,166.288091 C167.343903,168.951213 167.349307,171.620739 167.502787,174.277457 C168.188042,186.147831 173.88841,191.165601 185.966836,190.612696 C187.918839,190.524104 189.869762,190.415231 191.822846,190.391748 C192.05955,190.388546 192.301659,190.853925 193.23767,191.824177 C190.364788,192.896897 187.901546,194.330394 185.284824,194.701843 C174.91305,196.17163 164.733666,188.326361 164.454808,178.143521 C164.248367,170.589647 164.91849,162.955719 165.86639,155.439204 C167.40443,143.25075 160.082797,136.175064 147.984916,138.998293 C144.739143,139.755068 141.409064,141.118117 138.750189,143.052216 C136.876007,144.415265 136.071859,147.210743 134.789979,149.367925 C135.622228,149.298545 136.455558,149.230233 137.287808,149.16192" id="Fill-14"></path>
                <path d="M236.372956,74.0497634 C234.035765,70.6560501 232.032307,67.744452 230.027785,64.8339043 C228.382505,74.6967852 229.688738,76.40257 236.372956,74.0497634 M228.150805,90.7893516 C227.201686,87.1267461 225.958161,83.5114068 225.362969,79.7941826 C224.193842,72.4920795 223.303179,65.1416598 222.581509,57.7838877 C222.523053,57.1925349 225.024985,55.556074 225.704141,55.8480741 C227.581121,56.6526499 229.408148,57.980305 230.74733,59.5295861 C238.356221,68.3232004 243.002969,78.8394053 247.871852,89.1938547 C248.268292,90.0372938 247.331927,91.4930928 247.0152,92.6652947 C246.055453,92.1159564 244.707769,91.7945462 244.212484,90.9721143 C243.053986,89.0447036 241.775386,86.9450338 241.494795,84.7938964 C240.862404,79.9517366 238.093699,79.4402112 233.990063,80.0032042 C229.183888,80.6628303 231.023669,83.5922845 231.325516,86.2370911 C231.641181,89.007941 231.87288,91.8281577 231.677317,94.5948061 C231.590164,95.8132237 230.354078,96.951814 229.639848,98.1261166 C228.897983,96.9434112 227.880843,95.8405331 227.500345,94.553842 C227.176178,93.4530647 227.582184,92.141165 227.665086,90.9227473 C227.827701,90.8786322 227.989253,90.8334667 228.150805,90.7893516" id="Fill-16"></path>
                <path d="M260.134264,137.382808 C259.583752,149.292994 261.969663,159.944518 258.418214,170.006408 C257.946193,169.966181 257.473096,169.924896 257,169.883611 L257,123.128906 C257.622552,123.016695 258.245104,122.903426 258.867656,122.790157 C259.620309,124.633161 260.712732,126.414766 261.069704,128.329754 C262.844891,137.841177 267.714558,145.7626 274.118564,152.79269 C275.632472,154.453616 278.601152,156.204523 280.423648,155.805435 C282.031101,155.453983 283.980473,152.187177 284.040686,150.156803 C284.384756,138.634061 284.207344,127.096498 284.207344,115 C284.848175,115.881805 285.505134,116.36558 285.523413,116.872644 C285.95135,128.274708 286.364234,139.678888 286.616911,151.086244 C286.655618,152.790573 286.105106,154.602877 285.441696,156.210874 C283.03428,162.040525 279.380686,162.913861 274.966911,158.475196 C272.122957,155.614889 269.651028,152.347024 267.325329,149.04846 C265.009307,145.764717 263.08359,142.21315 260.134264,137.382808" id="Fill-18"></path>
                <path d="M212.946651,195.006408 C212.460849,194.312895 211.899454,193.657267 211.501474,192.92166 C203.626373,178.394723 195.794628,163.846739 187.870613,149.342954 C187.134685,147.993814 185.180361,146.993009 185.011387,145.688068 C184.863534,144.545193 186.184203,142.929802 187.308106,142.02371 C188.464247,141.090257 190.167332,140.764022 192.053843,140 C195.015344,147.106665 197.945717,154.198597 200.922781,161.272638 C203.535216,167.479525 205.664072,173.946349 209.050232,179.752282 C210.937855,182.989377 214.302894,185.478236 214.563025,189.559333 C214.676416,191.333631 214.581924,193.119505 214.581924,194.900118 C214.037203,194.935899 213.491371,194.970627 212.946651,195.006408" id="Fill-22"></path>
                <path d="M231.043026,43.1197089 C233.22123,43.717708 233.127984,46.3050901 233.464162,48.5916965 C234.019551,52.3644194 234.654281,56.1134591 235.274288,59.9915719 C233.579493,60.3598446 233.302207,58.744655 233.08545,57.3355087 C232.35911,52.6154606 231.717836,47.8669927 231.043026,43.1197089" id="Fill-26"></path>
                <path d="M24.9365269,67.4443563 C35.9432124,64.0643662 45.9999044,60.9763102 56.759358,57.6721472 C53.2280302,38.6774749 49.73953,19.9159708 46.2510297,1.15636228 C47.7441545,0.769644406 49.2372794,0.384822203 50.7323509,1.8189894e-12 C54.1643966,10.6631768 57.7171382,21.2922314 60.9661934,32.0084872 C62.0582964,35.6102713 62.3522493,39.4376409 63.066691,43.1531657 C64.5948565,51.0770908 65.7064266,58.667377 77.71956,57.2892207 C81.0815242,56.9043985 85.105369,61.9658531 91,66.0282865 C86.1526978,66.4320654 84.1222816,66.750539 82.0938122,66.7448519 C67.3124605,66.6936687 67.1508838,66.8737579 69.0975915,81.5879941 C71.6867127,101.15516 74.2505268,120.724223 76.8240744,140.293285 C75.6774636,140.8127 74.528906,141.330219 73.3822952,141.847739 C71.0150986,138.005204 67.195658,134.384463 66.529884,130.278429 C63.5923021,112.212638 61.3029738,94.0350019 59.3426391,75.8403048 C58.5951034,68.8831743 55.6224807,66.9818114 49.1983452,69.089803 C23.784076,77.4231942 28.7676477,74.7313344 32.9997903,95.9989221 C36.6498673,114.347169 39.6516906,132.82053 43.2530998,153 C32.3554301,146.120592 -5.00383772,14.3938669 0.561799636,4.18944369 C5.00418664,15.3284351 14.3581172,21.9936315 15.1757345,34.6965556 C15.8804427,45.625127 21.4071459,56.2560773 24.9365269,67.4443563" id="Fill-3"></path>
                <path d="M118.694546,106 C107.801968,81.3344997 111.771297,56.0383015 106,30 C116.423336,39.6006242 125.377405,95.175714 118.694546,106" id="Fill-28"></path>
                <path d="M177.615687,73.115183 C179.179759,74.4656181 180.583601,76.2541543 183.817585,79.0468602 C187.730705,64.0565786 191.417446,49.9409935 195.521665,34.2235545 C204.23137,46.4256468 217.978739,96.6792975 218.432967,110.641321 C214.805025,101.108484 202.21601,53.4879558 197.941272,42.2584177 C190.58396,57.1237427 192.290621,73.1573371 183.104638,84.9017567 L180.621821,85.1591976 C179.619286,81.2418818 178.287473,77.3230606 177.284938,73.4057449 L177.615687,73.115183 Z" id="Fill-30"></path>
                <path d="M179.987458,79.3723639 C178.417093,77.6011204 177.12715,75.8331388 175.558031,74.0629826 C175.13802,74.0945149 174.71801,74.1271345 174.297999,74.1597541 C176.147541,89.1473665 177.998329,104.134979 179.849116,119.122591 C179.280794,119.17587 178.711225,119.229149 178.141656,119.282427 C176.030387,101.133977 173.917871,82.9855267 171.805356,64.8370764 L173.441776,64.2760196 C176.562566,68.9743273 179.60733,73.4464725 180.26788,79.1625112 C180.264141,79.1657732 179.987458,79.3723639 179.987458,79.3723639" id="Fill-32"></path>
            </g>
        </g>
    </g>
</svg>