<?xml version="1.0" encoding="UTF-8"?>
<svg width="375px" height="774px" viewBox="0 0 375 774" version="1.1" xmlns="http://www.w3.org/2000/svg" xmlns:xlink="http://www.w3.org/1999/xlink">
    <!-- Generator: Sketch 50.2 (55047) - http://www.bohemiancoding.com/sketch -->
    <title>sec_3_wo_really@3x</title>
    <desc>Created with Sketch.</desc>
    <defs></defs>
    <g id="Landing" stroke="none" stroke-width="1" fill="none" fill-rule="evenodd" opacity="0.409646739">
        <g id="Landing-noise" transform="translate(-840.000000, -2501.000000)" fill="#C0C0C0">
            <path d="M840.328,2504.088 L868.724,2504.088 L892.998,2586.986 L919.791,2503.63 L943.378,2503.63 L970.4,2586.986 L995.132,2504.088 L1022.841,2504.088 L983.224,2625.916 L958.492,2625.916 L931.47,2543.247 L904.219,2625.916 L879.487,2625.916 L840.328,2504.088 Z M1105.51,2603.703 C1111.15869,2603.703 1116.23481,2602.67251 1120.7385,2600.6115 C1125.24219,2598.55049 1129.09698,2595.76435 1132.303,2592.253 C1135.50902,2588.74165 1137.95166,2584.65786 1139.631,2580.0015 C1141.31034,2575.34514 1142.15,2570.42169 1142.15,2565.231 L1142.15,2564.773 C1142.15,2559.42964 1141.23401,2554.39169 1139.402,2549.659 C1137.56999,2544.92631 1135.01285,2540.80435 1131.7305,2537.293 C1128.44815,2533.78165 1124.55519,2530.99551 1120.0515,2528.9345 C1115.54781,2526.87349 1110.54803,2525.843 1105.052,2525.843 C1099.55597,2525.843 1094.55619,2526.87349 1090.0525,2528.9345 C1085.54881,2530.99551 1081.69402,2533.74348 1078.488,2537.1785 C1075.28198,2540.61352 1072.83934,2544.69731 1071.16,2549.43 C1069.48066,2554.16269 1068.641,2559.12431 1068.641,2564.315 L1068.641,2564.773 C1068.641,2570.11636 1069.55699,2575.11614 1071.389,2579.7725 C1073.22101,2584.42886 1075.77815,2588.55082 1079.0605,2592.1385 C1082.34285,2595.72618 1086.23581,2598.55049 1090.7395,2600.6115 C1095.24319,2602.67251 1100.16664,2603.703 1105.51,2603.703 Z M1105.052,2627.748 C1095.89195,2627.748 1087.38087,2626.10685 1079.5185,2622.8245 C1071.65613,2619.54215 1064.86253,2615.07669 1059.1375,2609.428 C1053.41247,2603.77931 1048.94702,2597.13837 1045.741,2589.505 C1042.53498,2581.87163 1040.932,2573.78038 1040.932,2565.231 L1040.932,2564.773 C1040.932,2556.07096 1042.57315,2547.90337 1045.8555,2540.27 C1049.13785,2532.63663 1053.64147,2525.95753 1059.3665,2520.2325 C1065.09153,2514.50747 1071.88513,2509.96568 1079.7475,2506.607 C1087.60987,2503.24832 1096.19729,2501.569 1105.51,2501.569 C1114.82271,2501.569 1123.41013,2503.21015 1131.2725,2506.4925 C1139.13487,2509.77485 1145.92847,2514.27847 1151.6535,2520.0035 C1157.37853,2525.72853 1161.84398,2532.36946 1165.05,2539.9265 C1168.25602,2547.48354 1169.859,2555.61296 1169.859,2564.315 L1169.859,2564.773 C1169.859,2573.32238 1168.21785,2581.41363 1164.9355,2589.047 C1161.65315,2596.68037 1157.14953,2603.35947 1151.4245,2609.0845 C1145.69947,2614.80953 1138.86771,2619.35132 1130.929,2622.71 C1122.99029,2626.06868 1114.36471,2627.748 1105.052,2627.748 Z M908.341,2807.703 C913.989695,2807.703 919.065811,2806.67251 923.5695,2804.6115 C928.073189,2802.55049 931.927984,2799.76435 935.134,2796.253 C938.340016,2792.74165 940.782658,2788.65786 942.462,2784.0015 C944.141342,2779.34514 944.981,2774.42169 944.981,2769.231 L944.981,2768.773 C944.981,2763.42964 944.065009,2758.39169 942.233,2753.659 C940.400991,2748.92631 937.84385,2744.80435 934.5615,2741.293 C931.27915,2737.78165 927.386189,2734.99551 922.8825,2732.9345 C918.378811,2730.87349 913.379027,2729.843 907.883,2729.843 C902.386973,2729.843 897.387189,2730.87349 892.8835,2732.9345 C888.379811,2734.99551 884.525016,2737.74348 881.319,2741.1785 C878.112984,2744.61352 875.670342,2748.69731 873.991,2753.43 C872.311658,2758.16269 871.472,2763.12431 871.472,2768.315 L871.472,2768.773 C871.472,2774.11636 872.387991,2779.11614 874.22,2783.7725 C876.052009,2788.42886 878.60915,2792.55082 881.8915,2796.1385 C885.17385,2799.72618 889.066811,2802.55049 893.5705,2804.6115 C898.074189,2806.67251 902.99764,2807.703 908.341,2807.703 Z M907.883,2831.748 C898.722954,2831.748 890.211873,2830.10685 882.3495,2826.8245 C874.487127,2823.54215 867.693529,2819.07669 861.9685,2813.428 C856.243471,2807.77931 851.778016,2801.13837 848.572,2793.505 C845.365984,2785.87163 843.763,2777.78038 843.763,2769.231 L843.763,2768.773 C843.763,2760.07096 845.40415,2751.90337 848.6865,2744.27 C851.96885,2736.63663 856.472471,2729.95753 862.1975,2724.2325 C867.922529,2718.50747 874.716127,2713.96568 882.5785,2710.607 C890.440873,2707.24832 899.028287,2705.569 908.341,2705.569 C917.653713,2705.569 926.241127,2707.21015 934.1035,2710.4925 C941.965873,2713.77485 948.759471,2718.27847 954.4845,2724.0035 C960.209529,2729.72853 964.674984,2736.36946 967.881,2743.9265 C971.087016,2751.48354 972.69,2759.61296 972.69,2768.315 L972.69,2768.773 C972.69,2777.32238 971.04885,2785.41363 967.7665,2793.047 C964.48415,2800.68037 959.980529,2807.35947 954.2555,2813.0845 C948.530471,2818.80953 941.698706,2823.35132 933.76,2826.71 C925.821294,2830.06868 917.195713,2831.748 907.883,2831.748 Z M1000.857,2661.83 L1028.566,2661.83 L1028.566,2726.866 C1030.55068,2723.96532 1032.72615,2721.25551 1035.0925,2718.7365 C1037.45885,2716.21749 1040.20682,2713.96568 1043.3365,2711.981 C1046.46618,2709.99632 1049.90115,2708.43151 1053.6415,2707.2865 C1057.38185,2706.14149 1061.61831,2705.569 1066.351,2705.569 C1080.09107,2705.569 1090.7013,2709.76729 1098.182,2718.164 C1105.6627,2726.56071 1109.403,2737.85793 1109.403,2752.056 L1109.403,2829 L1081.694,2829 L1081.694,2760.3 C1081.694,2750.83462 1079.44219,2743.54486 1074.9385,2738.4305 C1070.43481,2733.31614 1064.06104,2730.759 1055.817,2730.759 C1047.72563,2730.759 1041.16103,2733.39247 1036.123,2738.6595 C1031.08497,2743.92653 1028.566,2751.29262 1028.566,2760.758 L1028.566,2829 L1000.857,2829 L1000.857,2661.83 Z M850.404,2912.088 L878.113,2912.088 L878.113,2939.339 C881.929686,2930.17895 887.349298,2922.85103 894.372,2917.355 C901.394702,2911.85897 910.24928,2909.34 920.936,2909.798 L920.936,2939.11 L919.333,2939.11 C913.226303,2939.11 907.654025,2940.10232 902.616,2942.087 C897.577975,2944.07168 893.227018,2947.04865 889.563,2951.018 C885.898982,2954.98735 883.074677,2959.98714 881.09,2966.0175 C879.105323,2972.04786 878.113,2979.03229 878.113,2986.971 L878.113,3033 L850.404,3033 L850.404,2912.088 Z M1027.879,2964.071 C1027.421,2959.64364 1026.42867,2955.48352 1024.902,2951.5905 C1023.37533,2947.69748 1021.31435,2944.33885 1018.719,2941.5145 C1016.12365,2938.69015 1013.03218,2936.43834 1009.4445,2934.759 C1005.85682,2933.07966 1001.77302,2932.24 997.193,2932.24 C988.643624,2932.24 981.582861,2935.1788 976.0105,2941.0565 C970.438139,2946.9342 967.041339,2954.60562 965.82,2964.071 L1027.879,2964.071 Z M1000.399,3035.748 C991.696956,3035.748 983.567538,3034.22135 976.0105,3031.168 C968.453462,3028.11465 961.888861,3023.84003 956.3165,3018.344 C950.744139,3012.84797 946.355016,3006.24521 943.149,2998.5355 C939.942984,2990.82579 938.34,2982.31471 938.34,2973.002 L938.34,2972.544 C938.34,2963.84196 939.790319,2955.67437 942.691,2948.041 C945.591681,2940.40763 949.675474,2933.72853 954.9425,2928.0035 C960.209526,2922.27847 966.430631,2917.77485 973.606,2914.4925 C980.781369,2911.21015 988.719956,2909.569 997.422,2909.569 C1007.04005,2909.569 1015.4748,2911.32465 1022.7265,2914.836 C1029.9782,2918.34735 1036.00848,2923.07997 1040.8175,2929.034 C1045.62652,2934.98803 1049.25232,2941.89613 1051.695,2949.7585 C1054.13768,2957.62087 1055.359,2965.90296 1055.359,2974.605 C1055.359,2975.82634 1055.32083,2977.08583 1055.2445,2978.3835 C1055.16817,2979.68117 1055.05367,2981.01699 1054.901,2982.391 L966.049,2982.391 C967.575674,2992.31438 971.506802,2999.90947 977.8425,3005.1765 C984.178198,3010.44353 991.849622,3013.077 1000.857,3013.077 C1007.72703,3013.077 1013.68097,3011.85568 1018.719,3009.413 C1023.75703,3006.97032 1028.71864,3003.38269 1033.604,2998.65 L1049.863,3013.077 C1044.06164,3019.94703 1037.15354,3025.44298 1029.1385,3029.565 C1021.12346,3033.68702 1011.54372,3035.748 1000.399,3035.748 Z M1157.951,2982.391 C1154.43965,2981.01699 1150.27952,2979.872 1145.4705,2978.956 C1140.66148,2978.04 1135.58536,2977.582 1130.242,2977.582 C1121.53996,2977.582 1114.74636,2979.26132 1109.861,2982.62 C1104.97564,2985.97868 1102.533,2990.55864 1102.533,2996.36 L1102.533,2996.818 C1102.533,3002.61936 1104.78481,3007.04665 1109.2885,3010.1 C1113.79219,3013.15335 1119.3263,3014.68 1125.891,3014.68 C1130.47102,3014.68 1134.70748,3014.06934 1138.6005,3012.848 C1142.49352,3011.62666 1145.89032,3009.90918 1148.791,3007.6955 C1151.69168,3005.48182 1153.94349,3002.81018 1155.5465,2999.6805 C1157.14951,2996.55082 1157.951,2993.07769 1157.951,2989.261 L1157.951,2982.391 Z M1157.264,3033 L1157.264,3018.115 C1153.14198,3023.00036 1147.87503,3027.12232 1141.463,3030.481 C1135.05097,3033.83968 1127.26505,3035.519 1118.105,3035.519 C1112.30364,3035.519 1106.80769,3034.71751 1101.617,3033.1145 C1096.42631,3031.51149 1091.88452,3029.14518 1087.9915,3026.0155 C1084.09848,3022.88582 1080.96885,3018.99286 1078.6025,3014.3365 C1076.23615,3009.68014 1075.053,3004.2987 1075.053,2998.192 L1075.053,2997.734 C1075.053,2991.01663 1076.27432,2985.17719 1078.717,2980.2155 C1081.15968,2975.25381 1084.55648,2971.13185 1088.9075,2967.8495 C1093.25852,2964.56715 1098.44914,2962.12451 1104.4795,2960.5215 C1110.50986,2958.91849 1117.0363,2958.117 1124.059,2958.117 C1131.38704,2958.117 1137.60814,2958.575 1142.7225,2959.491 C1147.83686,2960.407 1152.76031,2961.62833 1157.493,2963.155 L1157.493,2960.865 C1157.493,2952.46829 1154.93586,2946.05636 1149.8215,2941.629 C1144.70714,2937.20164 1137.34105,2934.988 1127.723,2934.988 C1120.85297,2934.988 1114.74636,2935.67499 1109.403,2937.049 C1104.05964,2938.42301 1098.64003,2940.25499 1093.144,2942.545 L1085.587,2920.332 C1092.30437,2917.27865 1099.1743,2914.83601 1106.197,2913.004 C1113.2197,2911.17199 1121.69262,2910.256 1131.616,2910.256 C1149.63076,2910.256 1162.98896,2914.72146 1171.691,2923.6525 C1180.39304,2932.58354 1184.744,2945.14025 1184.744,2961.323 L1184.744,3033 L1157.264,3033 Z M852.007,3069.83 L879.716,3069.83 L879.716,3237 L852.007,3237 L852.007,3069.83 Z M917.501,3069.83 L945.21,3069.83 L945.21,3237 L917.501,3237 L917.501,3069.83 Z M1006.124,3274.327 C1000.32264,3274.327 995.170189,3273.67817 990.6665,3272.3805 C986.162811,3271.08283 981.773688,3269.28901 977.499,3266.999 L986.888,3246.389 C989.483346,3247.76301 992.11682,3248.86983 994.7885,3249.7095 C997.46018,3250.54917 1000.24632,3250.969 1003.147,3250.969 C1007.11635,3250.969 1010.39865,3249.97668 1012.994,3247.992 C1015.58935,3246.00732 1018.03199,3242.34336 1020.322,3237 L969.942,3116.088 L999.483,3116.088 L1033.833,3205.856 L1065.206,3116.088 L1094.06,3116.088 L1045.97,3240.435 C1043.52732,3246.69436 1041.00835,3251.96131 1038.413,3256.236 C1035.81765,3260.51069 1032.91702,3263.98382 1029.711,3266.6555 C1026.50498,3269.32718 1022.99369,3271.27366 1019.177,3272.495 C1015.36031,3273.71634 1011.00936,3274.327 1006.124,3274.327 Z M1141.234,3205.627 L1171.92,3205.627 L1171.92,3237 L1141.234,3237 L1141.234,3205.627 Z M1143.295,3149.293 L1144.44,3148.148 C1159.09607,3147.53733 1169.8208,3145.01836 1176.6145,3140.591 C1183.4082,3136.16364 1186.805,3130.13337 1186.805,3122.5 L1186.805,3122.042 C1186.805,3115.62997 1184.47686,3110.40119 1179.8205,3106.3555 C1175.16414,3102.30981 1168.71404,3100.287 1160.47,3100.287 C1153.14196,3100.287 1146.46286,3101.85182 1140.4325,3104.9815 C1134.40214,3108.11118 1128.63903,3112.57664 1123.143,3118.378 L1105.968,3100.058 C1112.68537,3092.42463 1120.47129,3086.27986 1129.326,3081.6235 C1138.18071,3076.96714 1148.79094,3074.639 1161.157,3074.639 C1169.09571,3074.639 1176.38547,3075.70766 1183.0265,3077.845 C1189.66753,3079.98234 1195.31614,3083.07381 1199.9725,3087.1195 C1204.62886,3091.16519 1208.25465,3096.05047 1210.85,3101.7755 C1213.44535,3107.50053 1214.743,3113.95063 1214.743,3121.126 L1214.743,3121.584 C1214.743,3128.75937 1213.52168,3135.01864 1211.079,3140.362 C1208.63632,3145.70536 1205.35402,3150.20898 1201.232,3153.873 C1197.10998,3157.53702 1192.26286,3160.51399 1186.6905,3162.804 C1181.11814,3165.09401 1175.12603,3166.77333 1168.714,3167.842 L1166.424,3186.391 L1147.875,3186.391 L1143.295,3149.293 Z" id="sec_3_wo_really"></path>
        </g>
    </g>
</svg>