<?xml version="1.0" encoding="UTF-8" standalone="no"?>
<svg width="374px" height="773px" viewBox="0 0 374 773" version="1.1" xmlns="http://www.w3.org/2000/svg" xmlns:xlink="http://www.w3.org/1999/xlink">
    <!-- Generator: Sketch 50.2 (55047) - http://www.bohemiancoding.com/sketch -->
    <title>sec_3_wo_really@3x</title>
    <desc>Created with Sketch.</desc>
    <defs></defs>
    <g id="Landing" stroke="none" stroke-width="1" fill="none" fill-rule="evenodd" opacity="0.409646739">
        <g id="Landing-noise" transform="translate(-840.000000, -2502.000000)" fill="#C0C0C0">
            <path d="M840,2504.51979 L868.364526,2504.51979 L892.611621,2587.44375 L919.374924,2504.06165 L942.93578,2504.06165 L969.927829,2587.44375 L994.632416,2504.51979 L1022.3107,2504.51979 L982.737615,2626.38594 L958.033028,2626.38594 L931.040979,2543.69105 L903.820183,2626.38594 L879.115596,2626.38594 L840,2504.51979 Z M1104.88807,2604.16598 C1110.53051,2604.16598 1115.601,2603.13517 1120.09969,2601.07352 C1124.59839,2599.01186 1128.44891,2596.22485 1131.65138,2592.7124 C1134.85384,2589.19995 1137.29377,2585.11488 1138.97125,2580.45706 C1140.64873,2575.79925 1141.48746,2570.87425 1141.48746,2565.68194 L1141.48746,2565.22379 C1141.48746,2559.87876 1140.57249,2554.83923 1138.74251,2550.10506 C1136.91253,2545.37089 1134.35822,2541.24764 1131.07951,2537.73519 C1127.8008,2534.22274 1123.91215,2531.43573 1119.41346,2529.37407 C1114.91476,2527.31241 1109.92052,2526.2816 1104.43058,2526.2816 C1098.94065,2526.2816 1093.9464,2527.31241 1089.44771,2529.37407 C1084.94901,2531.43573 1081.09849,2534.18456 1077.89602,2537.62065 C1074.69356,2541.05674 1072.25363,2545.14182 1070.57615,2549.87599 C1068.89867,2554.61016 1068.05994,2559.57333 1068.05994,2564.76565 L1068.05994,2565.22379 C1068.05994,2570.56883 1068.97491,2575.57018 1070.80489,2580.22799 C1072.63487,2584.88581 1075.18918,2589.00905 1078.46789,2592.59786 C1081.7466,2596.18667 1085.63525,2599.01186 1090.13394,2601.07352 C1094.63264,2603.13517 1099.55064,2604.16598 1104.88807,2604.16598 Z M1104.43058,2628.21851 C1095.28069,2628.21851 1086.77904,2626.57685 1078.92538,2623.29347 C1071.07172,2620.0101 1064.28566,2615.54324 1058.56697,2609.89278 C1052.84829,2604.24231 1048.38778,2597.5993 1045.18532,2589.96354 C1041.98286,2582.32778 1040.38165,2574.23399 1040.38165,2565.68194 L1040.38165,2565.22379 C1040.38165,2556.51902 1042.02098,2548.34888 1045.29969,2540.71312 C1048.57841,2533.07736 1053.07704,2526.39617 1058.79572,2520.66934 C1064.5144,2514.94252 1071.30047,2510.39931 1079.15413,2507.03958 C1087.00779,2503.67984 1095.58568,2502 1104.88807,2502 C1114.19046,2502 1122.76836,2503.64166 1130.62202,2506.92504 C1138.47568,2510.20842 1145.26175,2514.71345 1150.98043,2520.44027 C1156.69911,2526.16709 1161.15962,2532.81011 1164.36208,2540.36951 C1167.56454,2547.92892 1169.16575,2556.06088 1169.16575,2564.76565 L1169.16575,2565.22379 C1169.16575,2573.77585 1167.52642,2581.86963 1164.24771,2589.50539 C1160.96899,2597.14116 1156.47036,2603.82235 1150.75168,2609.54917 C1145.033,2615.27599 1138.20881,2619.8192 1130.2789,2623.17894 C1122.34899,2626.53867 1113.73297,2628.21851 1104.43058,2628.21851 Z M907.937615,2808.22987 C913.580049,2808.22987 918.650538,2807.19906 923.149235,2805.1374 C927.647933,2803.07575 931.498455,2800.28873 934.700917,2796.77628 C937.90338,2793.26383 940.343315,2789.17876 942.020795,2784.52095 C943.698275,2779.86313 944.537003,2774.93814 944.537003,2769.74582 L944.537003,2769.28768 C944.537003,2763.94265 943.622027,2758.90312 941.792049,2754.16895 C939.96207,2749.43477 937.407764,2745.31152 934.129052,2741.79907 C930.85034,2738.28662 926.961694,2735.49961 922.462997,2733.43796 C917.9643,2731.3763 912.970058,2730.34549 907.480122,2730.34549 C901.990187,2730.34549 896.995945,2731.3763 892.497248,2733.43796 C887.99855,2735.49961 884.148028,2738.24844 880.945566,2741.68454 C877.743103,2745.12063 875.303168,2749.2057 873.625688,2753.93987 C871.948208,2758.67405 871.10948,2763.63722 871.10948,2768.82954 L871.10948,2769.28768 C871.10948,2774.63271 872.024456,2779.63406 873.854434,2784.29188 C875.684413,2788.94969 878.23872,2793.07294 881.517431,2796.66175 C884.796143,2800.25056 888.684789,2803.07575 893.183486,2805.1374 C897.682184,2807.19906 902.600177,2808.22987 907.937615,2808.22987 Z M907.480122,2832.2824 C898.330229,2832.2824 889.828582,2830.64074 881.974924,2827.35736 C874.121266,2824.07398 867.335197,2819.60713 861.616514,2813.95666 C855.897831,2808.3062 851.437325,2801.66319 848.234862,2794.02742 C845.0324,2786.39166 843.431193,2778.29788 843.431193,2769.74582 L843.431193,2769.28768 C843.431193,2760.58291 845.070524,2752.41277 848.349235,2744.77701 C851.627947,2737.14124 856.126577,2730.46005 861.84526,2724.73323 C867.563943,2719.00641 874.350012,2714.4632 882.20367,2711.10346 C890.057328,2707.74373 898.635224,2706.06389 907.937615,2706.06389 C917.240006,2706.06389 925.817902,2707.70555 933.67156,2710.98893 C941.525218,2714.2723 948.311286,2718.77734 954.029969,2724.50416 C959.748652,2730.23098 964.209158,2736.87399 967.411621,2744.4334 C970.614083,2751.9928 972.215291,2760.12477 972.215291,2768.82954 L972.215291,2769.28768 C972.215291,2777.83973 970.575959,2785.93352 967.297248,2793.56928 C964.018536,2801.20504 959.519906,2807.88623 953.801223,2813.61306 C948.08254,2819.33988 941.258347,2823.88309 933.32844,2827.24282 C925.398533,2830.60256 916.782513,2832.2824 907.480122,2832.2824 Z M1000.35107,2662.31119 L1028.02936,2662.31119 L1028.02936,2727.36755 C1030.01183,2724.46597 1032.1849,2721.75531 1034.54862,2719.23551 C1036.91235,2716.71571 1039.65727,2714.46319 1042.78349,2712.47789 C1045.9097,2710.4926 1049.34086,2708.92729 1053.07706,2707.78192 C1056.81327,2706.63656 1061.04503,2706.06389 1065.77248,2706.06389 C1079.49732,2706.06389 1090.09578,2710.26349 1097.5682,2718.66283 C1105.04061,2727.06217 1108.77676,2738.36293 1108.77676,2752.56544 L1108.77676,2829.53354 L1081.09847,2829.53354 L1081.09847,2760.81203 C1081.09847,2751.34368 1078.84916,2744.05164 1074.35046,2738.93568 C1069.85176,2733.81972 1063.48506,2731.26177 1055.25015,2731.26177 C1047.16775,2731.26177 1040.61042,2733.89607 1035.57798,2739.16475 C1030.54554,2744.43342 1028.02936,2751.80182 1028.02936,2761.27017 L1028.02936,2829.53354 L1000.35107,2829.53354 L1000.35107,2662.31119 Z M850.064832,2912.64756 L877.743119,2912.64756 L877.743119,2939.90709 C881.555575,2930.74418 886.96918,2923.41396 893.984098,2917.91621 C900.999016,2912.41846 909.843779,2909.8987 920.518654,2910.35684 L920.518654,2939.67802 L918.917431,2939.67802 C912.817503,2939.67802 907.251401,2940.67066 902.21896,2942.65595 C897.186519,2944.64125 892.840385,2947.61916 889.180428,2951.58975 C885.520471,2955.56035 882.699296,2960.5617 880.71682,2966.59395 C878.734343,2972.6262 877.743119,2979.61282 877.743119,2987.55401 L877.743119,3033.59743 L850.064832,3033.59743 L850.064832,2912.64756 Z M1027.34312,2964.64684 C1026.88562,2960.2181 1025.8944,2956.05667 1024.36942,2952.16243 C1022.84444,2948.26819 1020.78574,2944.90851 1018.19327,2942.08328 C1015.6008,2939.25804 1012.51276,2937.00553 1008.92905,2935.32566 C1005.34534,2933.64579 1001.26608,2932.80587 996.691131,2932.80587 C988.151232,2932.80587 981.098295,2935.74559 975.53211,2941.62513 C969.965925,2947.50467 966.572891,2955.17849 965.352905,2964.64684 L1027.34312,2964.64684 Z M999.893578,3036.34629 C991.20118,3036.34629 983.080772,3034.81916 975.53211,3031.76485 C967.983448,3028.71055 961.426124,3024.43458 955.859939,3018.93684 C950.293754,3013.43909 945.909496,3006.83425 942.707034,2999.12213 C939.504571,2991.41001 937.903364,2982.89627 937.903364,2973.58064 L937.903364,2973.12249 C937.903364,2964.41772 939.352075,2956.24758 942.249541,2948.61182 C945.147007,2940.97606 949.226273,2934.29487 954.487462,2928.56804 C959.74865,2922.84122 965.962859,2918.33619 973.130275,2915.05281 C980.297691,2911.76944 988.227479,2910.12777 996.919878,2910.12777 C1006.52727,2910.12777 1014.95267,2911.88397 1022.19633,2915.39642 C1029.44,2918.90887 1035.46358,2923.64297 1040.26728,2929.59887 C1045.07097,2935.55476 1048.69275,2942.46502 1051.13272,2950.32986 C1053.57269,2958.19469 1054.79266,2966.47937 1054.79266,2975.18414 C1054.79266,2976.40586 1054.75454,2977.66574 1054.67829,2978.96382 C1054.60204,2980.2619 1054.48767,2981.59814 1054.33517,2982.97258 L965.581651,2982.97258 C967.106634,2992.89907 971.033404,3000.49654 977.36208,3005.76521 C983.690755,3011.03389 991.353676,3013.66819 1000.35107,3013.66819 C1007.21349,3013.66819 1013.16083,3012.44648 1018.19327,3010.00304 C1023.22571,3007.55959 1028.18183,3003.97084 1033.06177,2999.23667 L1049.30275,3013.66819 C1043.50782,3020.54037 1036.60738,3026.03804 1028.60122,3030.16135 C1020.59507,3034.28466 1011.02595,3036.34629 999.893578,3036.34629 Z M1157.27095,2982.97258 C1153.76349,2981.59814 1149.60798,2980.45279 1144.80428,2979.5365 C1140.00059,2978.62021 1134.9301,2978.16207 1129.59266,2978.16207 C1120.90026,2978.16207 1114.11419,2979.84191 1109.23425,2983.20165 C1104.35431,2986.56138 1101.91437,2991.14277 1101.91437,2996.94595 L1101.91437,2997.40409 C1101.91437,3003.20727 1104.16369,3007.63595 1108.66239,3010.69025 C1113.16108,3013.74456 1118.68906,3015.27169 1125.24648,3015.27169 C1129.82143,3015.27169 1134.05319,3014.66084 1137.9419,3013.43911 C1141.8306,3012.21739 1145.22363,3010.49937 1148.1211,3008.285 C1151.01857,3006.07063 1153.26788,3003.39815 1154.86911,3000.26749 C1156.47034,2997.13683 1157.27095,2993.66261 1157.27095,2989.84473 L1157.27095,2982.97258 Z M1156.58471,3033.59743 L1156.58471,3018.70776 C1152.46726,3023.59465 1147.20615,3027.7179 1140.80122,3031.07764 C1134.3963,3034.43737 1126.61901,3036.11721 1117.46911,3036.11721 C1111.67418,3036.11721 1106.18433,3035.31547 1100.99939,3033.71196 C1095.81445,3032.10845 1091.2777,3029.7414 1087.38899,3026.61074 C1083.50029,3023.48008 1080.37412,3019.5859 1078.0104,3014.92808 C1075.64668,3010.27027 1074.46483,3004.88713 1074.46483,2998.77852 L1074.46483,2998.32038 C1074.46483,2991.60091 1075.6848,2985.75964 1078.12477,2980.79639 C1080.56474,2975.83315 1083.95778,2971.7099 1088.30398,2968.42652 C1092.65017,2965.14314 1097.83504,2962.69974 1103.85872,2961.09623 C1109.8824,2959.49272 1116.4016,2958.69097 1123.41651,2958.69097 C1130.73643,2958.69097 1136.95064,2959.14911 1142.05933,2960.0654 C1147.16802,2960.9817 1152.08601,2962.2034 1156.81346,2963.73055 L1156.81346,2961.43983 C1156.81346,2953.0405 1154.25915,2946.62655 1149.15046,2942.19781 C1144.04177,2937.76907 1136.68384,2935.55473 1127.07645,2935.55473 C1120.21403,2935.55473 1114.1142,2936.24194 1108.77676,2937.61638 C1103.43932,2938.99081 1098.02572,2940.82337 1092.53578,2943.1141 L1084.98716,2920.89414 C1091.69708,2917.83984 1098.55939,2915.39643 1105.57431,2913.56385 C1112.58923,2911.73126 1121.05275,2910.81499 1130.96514,2910.81499 C1148.95993,2910.81499 1162.30332,2915.28184 1170.99572,2924.21568 C1179.68812,2933.14952 1184.03425,2945.71016 1184.03425,2961.89798 L1184.03425,3033.59743 L1156.58471,3033.59743 Z M851.666055,3070.43896 L879.344343,3070.43896 L879.344343,3237.66131 L851.666055,3237.66131 L851.666055,3070.43896 Z M917.087462,3070.43896 L944.765749,3070.43896 L944.765749,3237.66131 L917.087462,3237.66131 L917.087462,3070.43896 Z M1005.61223,3275 C999.8173,3275 994.670563,3274.35097 990.171865,3273.05289 C985.673168,3271.75481 981.28891,3269.96043 977.01896,3267.66971 L986.397554,3247.05325 C988.990023,3248.42769 991.620578,3249.53486 994.289297,3250.37479 C996.958015,3251.21472 999.741066,3251.63469 1002.63853,3251.63469 C1006.60349,3251.63469 1009.88215,3250.64205 1012.47462,3248.65675 C1015.06709,3246.67145 1017.50702,3243.00634 1019.7945,3237.66131 L969.470336,3116.71145 L998.978593,3116.71145 L1033.29052,3206.50756 L1064.62875,3116.71145 L1093.45076,3116.71145 L1045.41407,3241.09739 C1042.9741,3247.35871 1040.45791,3252.62731 1037.86544,3256.90333 C1035.27297,3261.17936 1032.37555,3264.65358 1029.17309,3267.3261 C1025.97063,3269.99861 1022.46322,3271.9457 1018.65076,3273.16743 C1014.83831,3274.38915 1010.49218,3275 1005.61223,3275 Z M1140.57248,3206.27849 L1171.22446,3206.27849 L1171.22446,3237.66131 L1140.57248,3237.66131 L1140.57248,3206.27849 Z M1142.63119,3149.92684 L1143.77492,3148.78149 C1158.41475,3148.17062 1169.12759,3145.65086 1175.91376,3141.22212 C1182.69993,3136.79338 1186.09297,3130.76122 1186.09297,3123.12545 L1186.09297,3122.66731 C1186.09297,3116.25327 1183.7674,3111.02285 1179.11621,3106.9759 C1174.46501,3102.92894 1168.02206,3100.9055 1159.78716,3100.9055 C1152.46724,3100.9055 1145.79554,3102.4708 1139.77187,3105.60147 C1133.74819,3108.73213 1127.99146,3113.19898 1122.50153,3119.00216 L1105.34557,3100.67643 C1112.05549,3093.04066 1119.83278,3086.89397 1128.67768,3082.23615 C1137.52257,3077.57834 1148.12104,3075.24946 1160.47339,3075.24946 C1168.4033,3075.24946 1175.68498,3076.31846 1182.31865,3078.45647 C1188.95233,3080.59448 1194.59468,3083.68692 1199.24587,3087.73387 C1203.89707,3091.78083 1207.51885,3096.66764 1210.11131,3102.39446 C1212.70378,3108.12128 1214,3114.57341 1214,3121.75102 L1214,3122.20917 C1214,3129.38678 1212.78003,3135.64801 1210.34006,3140.99305 C1207.90009,3146.33808 1204.62143,3150.84311 1200.50398,3154.50828 C1196.38652,3158.17344 1191.54478,3161.15135 1185.97859,3163.44208 C1180.41241,3165.7328 1174.42694,3167.41265 1168.02202,3168.48165 L1165.73456,3187.03646 L1147.20612,3187.03646 L1142.63119,3149.92684 Z" id="sec_3_wo_really"></path>
        </g>
    </g>
</svg>