<?xml version="1.0" encoding="UTF-8"?>
<svg width="43px" height="46px" viewBox="0 0 43 46" version="1.1" xmlns="http://www.w3.org/2000/svg" xmlns:xlink="http://www.w3.org/1999/xlink">
    <!-- Generator: Sketch 50.2 (55047) - http://www.bohemiancoding.com/sketch -->
    <title>sec_3_cross</title>
    <desc>Created with Sketch.</desc>
    <defs></defs>
    <g id="Landing" stroke="none" stroke-width="1" fill="none" fill-rule="evenodd">
        <g id="Landing-noise" transform="translate(-1339.000000, -2867.000000)" fill="#000000" fill-rule="nonzero">
            <path d="M1380.98969,2902.11528 C1376.75703,2897.08997 1370.82052,2893.2399 1365.48661,2889.46337 C1364.1301,2888.50479 1364.43666,2887.94803 1365.34056,2886.93036 C1368.38381,2883.50837 1372.21123,2879.2171 1375.55315,2876.1247 C1378.00959,2873.85038 1377.82802,2871.17293 1378.24642,2868.47184 C1378.32537,2867.98599 1378.27668,2867.4266 1377.73856,2867.14691 C1377.06622,2866.7963 1376.52415,2867.11671 1376.17285,2867.64983 C1374.12165,2870.75273 1370.47449,2872.09343 1368.1983,2874.98098 C1366.12078,2877.61509 1363.31962,2880.63527 1361.24868,2883.27201 C1360.20137,2884.60483 1359.05933,2885.16159 1357.88308,2884.15968 C1353.8491,2880.718 1349.07041,2878.03267 1345.34957,2874.26795 C1342.80234,2871.69293 1342.91155,2871.70474 1341.65372,2875.11098 C1341.30243,2876.06299 1340.08802,2875.304 1339.69199,2876.12996 C1339.06571,2877.43388 1339.43411,2878.41478 1340.44984,2879.38124 C1344.37331,2883.09606 1348.57307,2886.47865 1353.05572,2889.4765 C1354.67273,2890.5572 1354.65037,2891.16255 1353.4478,2892.6096 C1348.96253,2898.00784 1344.63908,2903.53738 1340.2709,2909.03148 C1339.43937,2910.07541 1338.3118,2911.58155 1339.54726,2912.48367 C1340.7143,2913.33457 1342.42078,2913.19144 1343.79439,2911.62095 C1348.55202,2906.18332 1353.54517,2900.94529 1358.35279,2895.54837 C1359.30537,2894.47817 1359.84613,2894.32454 1361.01054,2895.22534 C1364.22483,2897.71239 1367.76411,2899.816 1370.76921,2902.52103 C1372.97303,2904.50647 1375.67288,2905.21161 1378.11748,2906.5313 C1379.64898,2907.35987 1380.94233,2906.54574 1381.68965,2905.19979 C1382.30014,2904.10071 1381.98043,2903.29183 1380.98969,2902.11528 Z" id="sec_3_cross"></path>
        </g>
    </g>
</svg>