<?xml version="1.0" encoding="UTF-8" standalone="no"?>
<svg width="1064px" height="299px" viewBox="0 0 1064 299" version="1.1" xmlns="http://www.w3.org/2000/svg" xmlns:xlink="http://www.w3.org/1999/xlink">
    <!-- Generator: Sketch 50.2 (55047) - http://www.bohemiancoding.com/sketch -->
    <title>porfolio/ww</title>
    <desc>Created with Sketch.</desc>
    <defs></defs>
    <g id="Landing" stroke="none" stroke-width="1" fill="none" fill-rule="evenodd" opacity="0.0655004529">
        <g id="Landing-noise" transform="translate(-229.000000, -6013.000000)" fill="#000000">
            <path d="M229,6026 L229,6013 L404.170732,6013 L404.170732,6026 L369.785366,6026 L439.853659,6183.3 L482.02439,6077.35 L460.614634,6026 L436.609756,6026 L436.609756,6013 L598.804878,6013 L598.804878,6026 L570.258537,6026 L640.326829,6183.3 L700.663415,6026 L648.760976,6026 L648.760976,6013 L754.512195,6013 L754.512195,6026 L715.585366,6026 L605.941463,6312 L592.317073,6312 L489.809756,6096.85 L404.819512,6312 L391.195122,6312 L259.492683,6026 L229,6026 Z M767.487805,6026 L767.487805,6013 L942.658537,6013 L942.658537,6026 L908.273171,6026 L978.341463,6183.3 L1020.5122,6077.35 L999.102439,6026 L975.097561,6026 L975.097561,6013 L1137.29268,6013 L1137.29268,6026 L1108.74634,6026 L1178.81463,6183.3 L1239.15122,6026 L1187.24878,6026 L1187.24878,6013 L1293,6013 L1293,6026 L1254.07317,6026 L1144.42927,6312 L1130.80488,6312 L1028.29756,6096.85 L943.307317,6312 L929.682927,6312 L797.980488,6026 L767.487805,6026 Z" id="porfolio/ww"></path>
        </g>
    </g>
</svg>