<?xml version="1.0" encoding="UTF-8" standalone="no"?>
<svg width="724px" height="570px" viewBox="0 0 724 570" version="1.1" xmlns="http://www.w3.org/2000/svg" xmlns:xlink="http://www.w3.org/1999/xlink">
    <!-- Generator: Sketch 50.2 (55047) - http://www.bohemiancoding.com/sketch -->
    <title>Combined Shape Copy 2</title>
    <desc>Created with Sketch.</desc>
    <defs></defs>
    <g id="Landing" stroke="none" stroke-width="1" fill="none" fill-rule="evenodd">
        <g id="Landing-noise" transform="translate(-716.000000, -99.000000)" fill="#000000">
            <path d="M924.310345,578.956522 C909.43096,610.89871 893.725178,633.891234 877.192529,647.934783 C860.659879,661.978331 838.616677,669 811.062261,669 C783.507844,669 762.015722,663.079769 746.585249,651.23913 C731.154776,639.398492 723.439655,623.702996 723.439655,604.152174 C723.439655,584.601352 729.088226,569.043536 740.385536,557.478261 C751.682847,545.912986 765.322078,540.130435 781.30364,540.130435 C797.285201,540.130435 810.786663,543.15939 821.808429,549.217391 C832.830196,555.275393 840.545316,561.884022 844.954023,569.043478 C857.077966,588.318937 868.512877,597.956522 879.2591,597.956522 C890.005322,597.956522 899.511453,588.594297 907.777778,569.869565 L942.496169,488.086957 L749.065134,123.782609 L716,123.782609 L716,107.26087 L938.363027,107.26087 L938.363027,123.782609 L897.031609,123.782609 L1007.79981,341.869565 L1102.86207,123.782609 L1036.7318,123.782609 L1036.7318,107.26087 L1172.29885,107.26087 L1172.29885,123.782609 L1122.70115,123.782609 L924.310345,578.956522 Z M1579,322.043478 L1329.35824,322.043478 C1334.86912,418.971499 1372.6181,467.434783 1442.60632,467.434783 C1461.34332,467.434783 1482.69768,463.02903 1506.67002,454.217391 C1530.64236,445.405753 1548.13915,433.014573 1559.16092,417.043478 L1570.73372,425.304348 C1558.60977,445.681261 1537.94427,462.478195 1508.73659,475.695652 C1479.52891,488.91311 1450.45944,495.521739 1421.5273,495.521739 C1392.59516,495.521739 1366.55663,492.630464 1343.41092,486.847826 C1320.26521,481.065188 1297.67093,471.289924 1275.62739,457.521739 C1253.58386,443.753554 1236.36261,423.101587 1223.96312,395.565217 C1211.56364,368.028848 1205.36398,334.71034 1205.36398,295.608696 C1205.36398,228.970681 1223.82517,179.543639 1260.74808,147.326087 C1297.671,115.108535 1342.44626,99 1395.07519,99 C1447.70413,99 1491.51499,116.623012 1526.5091,151.869565 C1561.50321,187.116118 1579,243.840189 1579,322.043478 Z M1328.53161,305.521739 L1463.27203,305.521739 C1463.27203,254.854819 1457.899,210.521929 1447.15278,172.521739 C1436.40656,134.521549 1419.1853,115.521739 1395.48851,115.521739 C1371.79171,115.521739 1354.70823,133.83315 1344.23755,170.456522 C1333.76687,207.079893 1328.53161,249.072227 1328.53161,296.434783 L1328.53161,305.521739 Z" id="Combined-Shape-Copy-2" style="mix-blend-mode: multiply;"></path>
        </g>
    </g>
</svg>